Montserrat-SemiBoldItalic.ufo
<glyph name="ampersand" format="2">
  <advance width="696"/>
  <unicode hex="0026"/>
  <outline>
    <contour>
      <point x="258" y="-9" type="curve" smooth="yes"/>
      <point x="431" y="-9"/>
      <point x="580" y="100"/>
      <point x="660" y="311" type="curve"/>
      <point x="575" y="340" type="line"/>
      <point x="509" y="169"/>
      <point x="392" y="83"/>
      <point x="266" y="83" type="curve" smooth="yes"/>
      <point x="180" y="83"/>
      <point x="134" y="122"/>
      <point x="134" y="178" type="curve" smooth="yes"/>
      <point x="134" y="245"/>
      <point x="188" y="287"/>
      <point x="320" y="345" type="curve" smooth="yes"/>
      <point x="480" y="413"/>
      <point x="563" y="472"/>
      <point x="563" y="574" type="curve" smooth="yes"/>
      <point x="563" y="658"/>
      <point x="493" y="707"/>
      <point x="394" y="707" type="curve" smooth="yes"/>
      <point x="273" y="707"/>
      <point x="181" y="637"/>
      <point x="181" y="521" type="curve" smooth="yes"/>
      <point x="181" y="470"/>
      <point x="203" y="425"/>
      <point x="243" y="376" type="curve" smooth="yes"/>
      <point x="563" y="-11" type="line"/>
      <point x="637" y="61" type="line"/>
      <point x="337" y="422" type="line" smooth="yes"/>
      <point x="298" y="469"/>
      <point x="282" y="501"/>
      <point x="282" y="532" type="curve" smooth="yes"/>
      <point x="282" y="590"/>
      <point x="325" y="627"/>
      <point x="390" y="627" type="curve" smooth="yes"/>
      <point x="440" y="627"/>
      <point x="469" y="600"/>
      <point x="469" y="565" type="curve" smooth="yes"/>
      <point x="469" y="511"/>
      <point x="431" y="478"/>
      <point x="284" y="416" type="curve" smooth="yes"/>
      <point x="113" y="343"/>
      <point x="24" y="270"/>
      <point x="24" y="159" type="curve" smooth="yes"/>
      <point x="24" y="56"/>
      <point x="116" y="-9"/>
    </contour>
  </outline>
</glyph>
<glyph name="parenright" format="2">
  <advance width="342"/>
  <unicode hex="0029"/>
  <outline>
    <contour>
      <point x="-28" y="-194" type="curve"/>
      <point x="84" y="-194" type="line"/>
      <point x="224" y="-27"/>
      <point x="309" y="223"/>
      <point x="309" y="465" type="curve" smooth="yes"/>
      <point x="309" y="564"/>
      <point x="289" y="671"/>
      <point x="260" y="742" type="curve"/>
      <point x="159" y="742" type="line"/>
      <point x="189" y="649"/>
      <point x="203" y="562"/>
      <point x="203" y="471" type="curve" smooth="yes"/>
      <point x="203" y="236"/>
      <point x="118" y="-6"/>
    </contour>
  </outline>
</glyph>
<glyph name="eight" format="2">
  <advance width="648"/>
  <unicode hex="0038"/>
  <outline>
    <contour>
      <point x="298" y="-9" type="curve" smooth="yes"/>
      <point x="473" y="-9"/>
      <point x="592" y="76"/>
      <point x="592" y="213" type="curve" smooth="yes"/>
      <point x="592" y="327"/>
      <point x="494" y="397"/>
      <point x="321" y="397" type="curve" smooth="yes"/>
      <point x="136" y="397"/>
      <point x="28" y="317"/>
      <point x="28" y="183" type="curve" smooth="yes"/>
      <point x="28" y="65"/>
      <point x="132" y="-9"/>
    </contour>
    <contour>
      <point x="301" y="84" type="curve" smooth="yes"/>
      <point x="203" y="84"/>
      <point x="143" y="126"/>
      <point x="143" y="193" type="curve" smooth="yes"/>
      <point x="143" y="272"/>
      <point x="211" y="321"/>
      <point x="319" y="321" type="curve" smooth="yes"/>
      <point x="418" y="321"/>
      <point x="477" y="279"/>
      <point x="477" y="213" type="curve" smooth="yes"/>
      <point x="477" y="133"/>
      <point x="410" y="84"/>
    </contour>
    <contour>
      <point x="365" y="334" type="curve" smooth="yes"/>
      <point x="534" y="334"/>
      <point x="631" y="408"/>
      <point x="631" y="532" type="curve" smooth="yes"/>
      <point x="631" y="641"/>
      <point x="532" y="709"/>
      <point x="384" y="709" type="curve" smooth="yes"/>
      <point x="227" y="709"/>
      <point x="117" y="631"/>
      <point x="117" y="503" type="curve" smooth="yes"/>
      <point x="117" y="399"/>
      <point x="204" y="334"/>
    </contour>
    <contour>
      <point x="366" y="407" type="curve" smooth="yes"/>
      <point x="280" y="407"/>
      <point x="230" y="444"/>
      <point x="230" y="502" type="curve" smooth="yes"/>
      <point x="230" y="573"/>
      <point x="290" y="616"/>
      <point x="381" y="616" type="curve" smooth="yes"/>
      <point x="464" y="616"/>
      <point x="518" y="579"/>
      <point x="518" y="519" type="curve" smooth="yes"/>
      <point x="518" y="451"/>
      <point x="459" y="407"/>
    </contour>
  </outline>
</glyph>
<glyph name="N" format="2">
  <advance width="811"/>
  <unicode hex="004E"/>
  <anchor x="353" y="0" name="bottom"/>
  <anchor x="493" y="700" name="top"/>
  <outline>
    <contour>
      <point x="47" y="0" type="line"/>
      <point x="161" y="0" type="line"/>
      <point x="272" y="555" type="line"/>
      <point x="237" y="560" type="line"/>
      <point x="564" y="0" type="line"/>
      <point x="658" y="0" type="line"/>
      <point x="798" y="700" type="line"/>
      <point x="684" y="700" type="line"/>
      <point x="573" y="145" type="line"/>
      <point x="608" y="140" type="line"/>
      <point x="281" y="700" type="line"/>
      <point x="187" y="700" type="line"/>
    </contour>
  </outline>
</glyph>
<glyph name="Y" format="2">
  <advance width="654"/>
  <unicode hex="0059"/>
  <anchor x="273" y="0" name="bottom"/>
  <anchor x="319" y="235" name="center"/>
  <anchor x="414" y="700" name="top"/>
  <anchor x="138" y="700" name="topleft"/>
  <outline>
    <contour>
      <point x="216" y="0" type="line"/>
      <point x="330" y="0" type="line"/>
      <point x="385" y="275" type="line"/>
      <point x="346" y="198" type="line"/>
      <point x="747" y="700" type="line"/>
      <point x="626" y="700" type="line"/>
      <point x="295" y="289" type="line"/>
      <point x="360" y="290" type="line"/>
      <point x="194" y="700" type="line"/>
      <point x="81" y="700" type="line"/>
      <point x="284" y="199" type="line"/>
      <point x="271" y="275" type="line"/>
    </contour>
  </outline>
</glyph>
<glyph name="bracketleft" format="2">
  <advance width="342"/>
  <unicode hex="005B"/>
  <outline>
    <contour>
      <point x="6" y="-194" type="line"/>
      <point x="231" y="-194" type="line"/>
      <point x="249" y="-102" type="line"/>
      <point x="136" y="-102" type="line"/>
      <point x="286" y="650" type="line"/>
      <point x="399" y="650" type="line"/>
      <point x="417" y="742" type="line"/>
      <point x="193" y="742" type="line"/>
    </contour>
  </outline>
</glyph>
<glyph name="u" format="2">
  <advance width="679"/>
  <unicode hex="0075"/>
  <anchor x="284" y="0" name="bottom"/>
  <anchor x="539" y="0" name="ogonek"/>
  <anchor x="390" y="532" name="top"/>
  <anchor x="590" y="532" name="topright"/>
  <outline>
    <contour>
      <point x="262" y="-6" type="curve" smooth="yes"/>
      <point x="353" y="-6"/>
      <point x="432" y="28"/>
      <point x="483" y="103" type="curve"/>
      <point x="464" y="152" type="line"/>
      <point x="434" y="0" type="line"/>
      <point x="539" y="0" type="line"/>
      <point x="645" y="532" type="line"/>
      <point x="535" y="532" type="line"/>
      <point x="479" y="253" type="line" smooth="yes"/>
      <point x="457" y="144"/>
      <point x="390" y="92"/>
      <point x="295" y="92" type="curve" smooth="yes"/>
      <point x="203" y="92"/>
      <point x="168" y="145"/>
      <point x="186" y="236" type="curve" smooth="yes"/>
      <point x="245" y="532" type="line"/>
      <point x="135" y="532" type="line"/>
      <point x="76" y="237" type="line" smooth="yes"/>
      <point x="45" y="81"/>
      <point x="127" y="-6"/>
    </contour>
  </outline>
</glyph>
<glyph name="braceleft" format="2">
  <advance width="361"/>
  <unicode hex="007B"/>
  <guideline x="152" y="350" angle="78.6901"/>
  <outline>
    <contour>
      <point x="203" y="-194" type="curve" smooth="yes"/>
      <point x="250" y="-194" type="line"/>
      <point x="268" y="-102" type="line"/>
      <point x="244" y="-102" type="line" smooth="yes"/>
      <point x="200" y="-102"/>
      <point x="177" y="-75"/>
      <point x="188" y="-19" type="curve" smooth="yes"/>
      <point x="227" y="177" type="line" smooth="yes"/>
      <point x="240" y="241"/>
      <point x="216" y="273"/>
      <point x="159" y="280" type="curve"/>
      <point x="156" y="267" type="line"/>
      <point x="225" y="274"/>
      <point x="251" y="297"/>
      <point x="266" y="371" type="curve" smooth="yes"/>
      <point x="308" y="579" type="line" smooth="yes"/>
      <point x="317" y="625"/>
      <point x="343" y="650"/>
      <point x="397" y="650" type="curve" smooth="yes"/>
      <point x="419" y="650" type="line"/>
      <point x="437" y="742" type="line"/>
      <point x="390" y="742" type="line" smooth="yes"/>
      <point x="277" y="742"/>
      <point x="221" y="695"/>
      <point x="200" y="591" type="curve" smooth="yes"/>
      <point x="155" y="369" type="line" smooth="yes"/>
      <point x="148" y="335"/>
      <point x="130" y="320"/>
      <point x="101" y="320" type="curve" smooth="yes"/>
      <point x="67" y="320" type="line"/>
      <point x="49" y="228" type="line"/>
      <point x="84" y="228" type="line" smooth="yes"/>
      <point x="111" y="228"/>
      <point x="125" y="213"/>
      <point x="118" y="179" type="curve" smooth="yes"/>
      <point x="76" y="-31" type="line" smooth="yes"/>
      <point x="56" y="-133"/>
      <point x="107" y="-194"/>
    </contour>
  </outline>
</glyph>
<glyph name="sterling" format="2">
  <advance width="651"/>
  <unicode hex="00A3"/>
  <outline>
    <contour>
      <point x="88" y="15" type="line"/>
      <point x="202" y="15" type="line"/>
      <point x="285" y="431" type="line" smooth="yes"/>
      <point x="310" y="558"/>
      <point x="384" y="607"/>
      <point x="503" y="607" type="curve" smooth="yes"/>
      <point x="564" y="607"/>
      <point x="618" y="595"/>
      <point x="661" y="566" type="curve"/>
      <point x="711" y="657" type="line"/>
      <point x="664" y="692"/>
      <point x="593" y="709"/>
      <point x="510" y="709" type="curve" smooth="yes"/>
      <point x="350" y="709"/>
      <point x="210" y="627"/>
      <point x="173" y="442" type="curve" smooth="yes"/>
    </contour>
    <contour>
      <point x="-23" y="0" type="line"/>
      <point x="567" y="0" type="line"/>
      <point x="587" y="99" type="line"/>
      <point x="-3" y="99" type="line"/>
    </contour>
    <contour>
      <point x="38" y="313" type="line"/>
      <point x="520" y="313" type="line"/>
      <point x="535" y="387" type="line"/>
      <point x="53" y="387" type="line"/>
    </contour>
  </outline>
</glyph>
<glyph name="yen" format="2">
  <advance width="714"/>
  <unicode hex="00A5"/>
  <outline>
    <contour>
      <point x="247" y="0" type="line"/>
      <point x="361" y="0" type="line"/>
      <point x="422" y="305" type="line"/>
      <point x="383" y="229" type="line"/>
      <point x="807" y="700" type="line"/>
      <point x="687" y="700" type="line"/>
      <point x="330" y="304" type="line"/>
      <point x="399" y="304" type="line"/>
      <point x="198" y="700" type="line"/>
      <point x="81" y="700" type="line"/>
      <point x="321" y="240" type="line"/>
      <point x="308" y="305" type="line"/>
    </contour>
    <contour>
      <point x="63" y="110" type="line"/>
      <point x="587" y="110" type="line"/>
      <point x="600" y="174" type="line"/>
      <point x="76" y="174" type="line"/>
    </contour>
    <contour>
      <point x="91" y="248" type="line"/>
      <point x="615" y="248" type="line"/>
      <point x="628" y="312" type="line"/>
      <point x="104" y="312" type="line"/>
    </contour>
  </outline>
</glyph>
<glyph name="idotless" format="2">
  <advance width="284"/>
  <unicode hex="0131"/>
  <anchor x="89" y="0" name="bottom"/>
  <anchor x="144" y="0" name="ogonek"/>
  <anchor x="195" y="532" name="top"/>
  <outline>
    <contour>
      <point x="34" y="0" type="line"/>
      <point x="144" y="0" type="line"/>
      <point x="250" y="532" type="line"/>
      <point x="140" y="532" type="line"/>
    </contour>
  </outline>
</glyph>
<glyph name="eng" format="2">
  <advance width="683"/>
  <unicode hex="014B"/>
  <outline>
    <contour>
      <point x="343" y="-200" type="curve" smooth="yes"/>
      <point x="455" y="-200"/>
      <point x="521" y="-139"/>
      <point x="545" y="-17" type="curve" smooth="yes"/>
      <point x="607" y="295" type="line" smooth="yes"/>
      <point x="638" y="451"/>
      <point x="558" y="538"/>
      <point x="419" y="538" type="curve" smooth="yes"/>
      <point x="326" y="538"/>
      <point x="247" y="504"/>
      <point x="196" y="429" type="curve"/>
      <point x="215" y="380" type="line"/>
      <point x="245" y="532" type="line"/>
      <point x="140" y="532" type="line"/>
      <point x="34" y="0" type="line"/>
      <point x="144" y="0" type="line"/>
      <point x="200" y="279" type="line" smooth="yes"/>
      <point x="222" y="388"/>
      <point x="289" y="440"/>
      <point x="386" y="440" type="curve" smooth="yes"/>
      <point x="480" y="440"/>
      <point x="515" y="387"/>
      <point x="497" y="296" type="curve" smooth="yes"/>
      <point x="434" y="-18" type="line" smooth="yes"/>
      <point x="421" y="-81"/>
      <point x="394" y="-108"/>
      <point x="344" y="-108" type="curve" smooth="yes"/>
      <point x="316" y="-108"/>
      <point x="289" y="-100"/>
      <point x="270" y="-85" type="curve"/>
      <point x="223" y="-169" type="line"/>
      <point x="253" y="-190"/>
      <point x="294" y="-200"/>
    </contour>
  </outline>
</glyph>
<glyph name="oogonek" format="2">
  <advance width="640"/>
  <unicode hex="01EB"/>
  <anchor x="370" y="532" name="top"/>
  <outline>
    <contour>
      <point x="257" y="-226" type="curve" smooth="yes"/>
      <point x="295" y="-226"/>
      <point x="326" y="-217"/>
      <point x="353" y="-203" type="curve"/>
      <point x="340" y="-147" type="line"/>
      <point x="321" y="-157"/>
      <point x="297" y="-163"/>
      <point x="274" y="-163" type="curve" smooth="yes"/>
      <point x="244" y="-163"/>
      <point x="224" y="-148"/>
      <point x="224" y="-120" type="curve" smooth="yes"/>
      <point x="224" y="-77"/>
      <point x="270" y="-32"/>
      <point x="379" y="3" type="curve" smooth="yes"/>
      <point x="523" y="50"/>
      <point x="604" y="160"/>
      <point x="604" y="306" type="curve" smooth="yes"/>
      <point x="604" y="447"/>
      <point x="504" y="538"/>
      <point x="350" y="538" type="curve" smooth="yes"/>
      <point x="167" y="538"/>
      <point x="36" y="405"/>
      <point x="36" y="226" type="curve" smooth="yes"/>
      <point x="36" y="86"/>
      <point x="136" y="-6"/>
      <point x="290" y="-6" type="curve" smooth="yes"/>
      <point x="302" y="-6"/>
      <point x="315" y="-5"/>
      <point x="328" y="-4" type="curve"/>
      <point x="275" y="20" type="line"/>
      <point x="186" y="-18"/>
      <point x="145" y="-73"/>
      <point x="145" y="-134" type="curve" smooth="yes"/>
      <point x="145" y="-193"/>
      <point x="192" y="-226"/>
    </contour>
    <contour>
      <point x="297" y="90" type="curve" smooth="yes"/>
      <point x="201" y="90"/>
      <point x="147" y="143"/>
      <point x="147" y="231" type="curve" smooth="yes"/>
      <point x="147" y="355"/>
      <point x="230" y="442"/>
      <point x="343" y="442" type="curve" smooth="yes"/>
      <point x="439" y="442"/>
      <point x="493" y="389"/>
      <point x="493" y="301" type="curve" smooth="yes"/>
      <point x="493" y="177"/>
      <point x="410" y="90"/>
    </contour>
  </outline>
</glyph>
<glyph name="ringhalfright" format="2">
  <advance width="600"/>
  <unicode hex="02BE"/>
  <outline>
    <contour>
      <point x="375" y="645" type="curve"/>
      <point x="366" y="597" type="line"/>
      <point x="374" y="596"/>
      <point x="380" y="596"/>
      <point x="387" y="596" type="curve" smooth="yes"/>
      <point x="454" y="596"/>
      <point x="503" y="646"/>
      <point x="503" y="709" type="curve" smooth="yes"/>
      <point x="503" y="763"/>
      <point x="464" y="809"/>
      <point x="409" y="818" type="curve"/>
      <point x="401" y="770" type="line"/>
      <point x="431" y="764"/>
      <point x="451" y="740"/>
      <point x="451" y="709" type="curve" smooth="yes"/>
      <point x="451" y="672"/>
      <point x="424" y="644"/>
      <point x="387" y="644" type="curve" smooth="yes"/>
      <point x="383" y="644"/>
      <point x="379" y="644"/>
    </contour>
  </outline>
</glyph>
<glyph name="ringhalfleft" format="2">
  <advance width="600"/>
  <unicode hex="02BF"/>
  <outline>
    <contour>
      <point x="400" y="768" type="curve"/>
      <point x="409" y="816" type="line"/>
      <point x="401" y="818"/>
      <point x="395" y="818"/>
      <point x="388" y="818" type="curve" smooth="yes"/>
      <point x="322" y="818"/>
      <point x="272" y="767"/>
      <point x="272" y="705" type="curve" smooth="yes"/>
      <point x="272" y="651"/>
      <point x="311" y="605"/>
      <point x="366" y="596" type="curve"/>
      <point x="374" y="643" type="line"/>
      <point x="344" y="649"/>
      <point x="324" y="673"/>
      <point x="324" y="705" type="curve" smooth="yes"/>
      <point x="324" y="742"/>
      <point x="351" y="769"/>
      <point x="388" y="769" type="curve" smooth="yes"/>
      <point x="392" y="769"/>
      <point x="396" y="769"/>
    </contour>
  </outline>
</glyph>
<glyph name="acutecomb" format="2">
  <unicode hex="0301"/>
  <anchor x="353" y="532" name="_top"/>
  <anchor x="388" y="709" name="top"/>
  <outline>
    <contour>
      <point x="285" y="607" type="line"/>
      <point x="391" y="607" type="line"/>
      <point x="576" y="741" type="line"/>
      <point x="436" y="741" type="line"/>
    </contour>
  </outline>
</glyph>
<glyph name="circumflexcomb" format="2">
  <unicode hex="0302"/>
  <anchor x="353" y="532" name="_top"/>
  <anchor x="386" y="699" name="top"/>
  <outline>
    <contour>
      <point x="183" y="607" type="line"/>
      <point x="282" y="607" type="line"/>
      <point x="431" y="720" type="line"/>
      <point x="337" y="720" type="line"/>
      <point x="460" y="607" type="line"/>
      <point x="554" y="607" type="line"/>
      <point x="436" y="741" type="line"/>
      <point x="334" y="741" type="line"/>
    </contour>
  </outline>
</glyph>
<glyph name="De-cy" format="2">
  <advance width="809"/>
  <unicode hex="0414"/>
  <outline>
    <contour>
      <point x="527" y="54" type="line"/>
      <point x="640" y="54" type="line"/>
      <point x="769" y="700" type="line"/>
      <point x="267" y="700" type="line"/>
      <point x="215" y="481" type="line" smooth="yes"/>
      <point x="165" y="266"/>
      <point x="102" y="94"/>
      <point x="0" y="99" type="curve"/>
      <point x="129" y="79" type="line"/>
      <point x="217" y="106"/>
      <point x="267" y="271"/>
      <point x="312" y="462" type="curve" smooth="yes"/>
      <point x="345" y="601" type="line"/>
      <point x="636" y="601" type="line"/>
    </contour>
    <contour>
      <point x="-69" y="-151" type="line"/>
      <point x="37" y="-151" type="line"/>
      <point x="68" y="0" type="line"/>
      <point x="625" y="0" type="line"/>
      <point x="595" y="-151" type="line"/>
      <point x="701" y="-151" type="line"/>
      <point x="751" y="99" type="line"/>
      <point x="-18" y="99" type="line"/>
    </contour>
  </outline>
</glyph>
<glyph name="Ii-cy" format="2">
  <advance width="823"/>
  <unicode hex="0418"/>
  <anchor x="553" y="0" name="bottomleft"/>
  <anchor x="748" y="0" name="bottomright"/>
  <anchor x="497" y="700" name="top"/>
  <outline>
    <contour>
      <point x="51" y="0" type="line"/>
      <point x="158" y="0" type="line"/>
      <point x="658" y="516" type="line"/>
      <point x="553" y="0" type="line"/>
      <point x="666" y="0" type="line"/>
      <point x="806" y="700" type="line"/>
      <point x="698" y="700" type="line"/>
      <point x="199" y="183" type="line"/>
      <point x="304" y="700" type="line"/>
      <point x="191" y="700" type="line"/>
    </contour>
  </outline>
</glyph>
<glyph name="Ka-cy" format="2">
  <advance width="717"/>
  <unicode hex="041A"/>
  <anchor x="526" y="0" name="bottomleft"/>
  <anchor x="649" y="0" name="bottomright"/>
  <anchor x="451" y="700" name="top"/>
  <outline>
    <contour>
      <point x="51" y="0" type="line"/>
      <point x="165" y="0" type="line"/>
      <point x="305" y="700" type="line"/>
      <point x="191" y="700" type="line"/>
    </contour>
    <contour>
      <point x="192" y="302" type="line"/>
      <point x="423" y="302" type="line"/>
      <point x="441" y="402" type="line"/>
      <point x="210" y="402" type="line"/>
    </contour>
    <contour>
      <point x="526" y="0" type="line"/>
      <point x="649" y="0" type="line"/>
      <point x="444" y="397" type="line"/>
      <point x="348" y="344" type="line"/>
    </contour>
    <contour>
      <point x="445" y="339" type="line"/>
      <point x="780" y="700" type="line"/>
      <point x="651" y="700" type="line"/>
      <point x="336" y="353" type="line"/>
    </contour>
  </outline>
</glyph>
<glyph name="Ef-cy" format="2">
  <advance width="937"/>
  <unicode hex="0424"/>
  <outline>
    <contour>
      <point x="417" y="46" type="curve"/>
      <point x="448" y="46" type="line"/>
      <point x="734" y="46"/>
      <point x="915" y="182"/>
      <point x="915" y="399" type="curve" smooth="yes"/>
      <point x="915" y="564"/>
      <point x="784" y="657"/>
      <point x="556" y="657" type="curve"/>
      <point x="526" y="657" type="line"/>
      <point x="233" y="657"/>
      <point x="55" y="516"/>
      <point x="55" y="302" type="curve" smooth="yes"/>
      <point x="55" y="138"/>
      <point x="186" y="46"/>
    </contour>
    <contour>
      <point x="436" y="136" type="line"/>
      <point x="257" y="136"/>
      <point x="168" y="196"/>
      <point x="168" y="317" type="curve" smooth="yes"/>
      <point x="168" y="474"/>
      <point x="294" y="567"/>
      <point x="525" y="567" type="curve"/>
      <point x="539" y="567" type="line"/>
      <point x="713" y="567"/>
      <point x="802" y="506"/>
      <point x="802" y="385" type="curve" smooth="yes"/>
      <point x="802" y="228"/>
      <point x="675" y="136"/>
      <point x="449" y="136" type="curve"/>
    </contour>
    <contour>
      <point x="357" y="-27" type="line"/>
      <point x="462" y="-27" type="line"/>
      <point x="613" y="727" type="line"/>
      <point x="507" y="727" type="line"/>
    </contour>
  </outline>
</glyph>
<glyph name="de-cy" format="2">
  <advance width="671"/>
  <unicode hex="0434"/>
  <outline>
    <contour>
      <point x="409" y="52" type="line"/>
      <point x="519" y="52" type="line"/>
      <point x="615" y="532" type="line"/>
      <point x="190" y="532" type="line"/>
      <point x="148" y="355" type="line" smooth="yes"/>
      <point x="114" y="222"/>
      <point x="70" y="92"/>
      <point x="-10" y="96" type="curve"/>
      <point x="103" y="77" type="line"/>
      <point x="182" y="93"/>
      <point x="214" y="212"/>
      <point x="245" y="339" type="curve" smooth="yes"/>
      <point x="268" y="436" type="line"/>
      <point x="486" y="436" type="line"/>
    </contour>
    <contour>
      <point x="-69" y="-121" type="line"/>
      <point x="34" y="-121" type="line"/>
      <point x="58" y="0" type="line"/>
      <point x="486" y="0" type="line"/>
      <point x="462" y="-121" type="line"/>
      <point x="565" y="-121" type="line"/>
      <point x="608" y="96" type="line"/>
      <point x="-26" y="96" type="line"/>
    </contour>
  </outline>
</glyph>
<glyph name="ii-cy" format="2">
  <advance width="700"/>
  <unicode hex="0438"/>
  <anchor x="446" y="0" name="bottomleft"/>
  <anchor x="607" y="0" name="bottomright"/>
  <anchor x="397" y="532" name="top"/>
  <outline>
    <contour>
      <point x="36" y="0" type="line"/>
      <point x="142" y="0" type="line"/>
      <point x="524" y="380" type="line"/>
      <point x="446" y="0" type="line"/>
      <point x="558" y="0" type="line"/>
      <point x="664" y="532" type="line"/>
      <point x="559" y="532" type="line"/>
      <point x="178" y="153" type="line"/>
      <point x="254" y="532" type="line"/>
      <point x="143" y="532" type="line"/>
    </contour>
  </outline>
</glyph>
<glyph name="ka-cy" format="2">
  <advance width="605"/>
  <unicode hex="043A"/>
  <anchor x="420" y="0" name="bottomleft"/>
  <anchor x="547" y="0" name="bottomright"/>
  <anchor x="367" y="532" name="top"/>
  <outline>
    <contour>
      <point x="420" y="0" type="line"/>
      <point x="547" y="0" type="line"/>
      <point x="368" y="301" type="line"/>
      <point x="277" y="259" type="line"/>
    </contour>
    <contour>
      <point x="36" y="0" type="line"/>
      <point x="146" y="0" type="line"/>
      <point x="253" y="532" type="line"/>
      <point x="143" y="532" type="line"/>
    </contour>
    <contour>
      <point x="158" y="219" type="line"/>
      <point x="336" y="219" type="line"/>
      <point x="353" y="312" type="line"/>
      <point x="175" y="312" type="line"/>
    </contour>
    <contour>
      <point x="372" y="253" type="line"/>
      <point x="643" y="532" type="line"/>
      <point x="522" y="532" type="line"/>
      <point x="268" y="267" type="line"/>
    </contour>
  </outline>
</glyph>
<glyph name="en-cy" format="2">
  <advance width="684"/>
  <unicode hex="043D"/>
  <anchor x="287" y="0" name="bottom"/>
  <anchor x="432" y="0" name="bottomleft"/>
  <anchor x="372" y="427" name="center"/>
  <anchor x="393" y="532" name="top"/>
  <outline>
    <contour>
      <point x="36" y="0" type="line"/>
      <point x="146" y="0" type="line"/>
      <point x="189" y="216" type="line"/>
      <point x="475" y="216" type="line"/>
      <point x="432" y="0" type="line"/>
      <point x="542" y="0" type="line"/>
      <point x="648" y="532" type="line"/>
      <point x="538" y="532" type="line"/>
      <point x="494" y="311" type="line"/>
      <point x="208" y="311" type="line"/>
      <point x="252" y="532" type="line"/>
      <point x="142" y="532" type="line"/>
    </contour>
  </outline>
</glyph>
<glyph name="pe-cy" format="2">
  <advance width="679"/>
  <unicode hex="043F"/>
  <anchor x="427" y="0" name="bottomleft"/>
  <outline>
    <contour>
      <point x="36" y="0" type="line"/>
      <point x="146" y="0" type="line"/>
      <point x="237" y="463" type="line"/>
      <point x="205" y="436" type="line"/>
      <point x="538" y="436" type="line"/>
      <point x="518" y="463" type="line"/>
      <point x="427" y="0" type="line"/>
      <point x="537" y="0" type="line"/>
      <point x="643" y="532" type="line"/>
      <point x="142" y="532" type="line"/>
    </contour>
  </outline>
</glyph>
<glyph name="yeru-cy" format="2">
  <advance width="819"/>
  <unicode hex="044B"/>
  <anchor x="463" y="532" name="top"/>
  <outline>
    <contour>
      <point x="567" y="0" type="line"/>
      <point x="677" y="0" type="line"/>
      <point x="783" y="532" type="line"/>
      <point x="673" y="532" type="line"/>
    </contour>
    <contour>
      <point x="348" y="356" type="curve" smooth="yes"/>
      <point x="217" y="356" type="line"/>
      <point x="251" y="530" type="line"/>
      <point x="142" y="530" type="line"/>
      <point x="36" y="0" type="line"/>
      <point x="275" y="0" type="line" smooth="yes"/>
      <point x="430" y="0"/>
      <point x="531" y="82"/>
      <point x="531" y="208" type="curve" smooth="yes"/>
      <point x="531" y="306"/>
      <point x="469" y="356"/>
    </contour>
    <contour>
      <point x="275" y="82" type="curve" smooth="yes"/>
      <point x="163" y="82" type="line"/>
      <point x="201" y="275" type="line"/>
      <point x="315" y="275" type="line" smooth="yes"/>
      <point x="387" y="275"/>
      <point x="421" y="250"/>
      <point x="421" y="198" type="curve" smooth="yes"/>
      <point x="421" y="128"/>
      <point x="362" y="82"/>
    </contour>
  </outline>
</glyph>
<glyph name="yat-cy" format="2">
  <advance width="620"/>
  <unicode hex="0463"/>
  <outline>
    <contour>
      <point x="40" y="478" type="line"/>
      <point x="475" y="478" type="line"/>
      <point x="491" y="558" type="line"/>
      <point x="56" y="558" type="line"/>
    </contour>
    <contour>
      <point x="394" y="357" type="curve" smooth="yes"/>
      <point x="256" y="357" type="line"/>
      <point x="332" y="742" type="line"/>
      <point x="223" y="742" type="line"/>
      <point x="75" y="0" type="line"/>
      <point x="321" y="0" type="line" smooth="yes"/>
      <point x="476" y="0"/>
      <point x="577" y="82"/>
      <point x="577" y="208" type="curve" smooth="yes"/>
      <point x="577" y="307"/>
      <point x="515" y="357"/>
    </contour>
    <contour>
      <point x="321" y="82" type="curve" smooth="yes"/>
      <point x="202" y="82" type="line"/>
      <point x="240" y="275" type="line"/>
      <point x="361" y="275" type="line" smooth="yes"/>
      <point x="433" y="275"/>
      <point x="467" y="250"/>
      <point x="467" y="198" type="curve" smooth="yes"/>
      <point x="467" y="128"/>
      <point x="408" y="82"/>
    </contour>
  </outline>
</glyph>
<glyph name="semisoftsign-cy" format="2">
  <advance width="610"/>
  <unicode hex="048D"/>
  <outline>
    <contour>
      <point x="47" y="395" type="line"/>
      <point x="452" y="395" type="line"/>
      <point x="468" y="475" type="line"/>
      <point x="63" y="475" type="line"/>
    </contour>
    <contour>
      <point x="384" y="343" type="curve" smooth="yes"/>
      <point x="246" y="343" type="line"/>
      <point x="283" y="532" type="line"/>
      <point x="174" y="532" type="line"/>
      <point x="68" y="0" type="line"/>
      <point x="314" y="0" type="line" smooth="yes"/>
      <point x="468" y="0"/>
      <point x="568" y="78"/>
      <point x="568" y="199" type="curve" smooth="yes"/>
      <point x="568" y="294"/>
      <point x="506" y="343"/>
    </contour>
    <contour>
      <point x="313" y="81" type="curve" smooth="yes"/>
      <point x="194" y="81" type="line"/>
      <point x="230" y="263" type="line"/>
      <point x="352" y="263" type="line" smooth="yes"/>
      <point x="424" y="263"/>
      <point x="458" y="239"/>
      <point x="458" y="190" type="curve" smooth="yes"/>
      <point x="458" y="124"/>
      <point x="400" y="81"/>
    </contour>
  </outline>
</glyph>
<glyph name="gheupturn-cy" format="2">
  <advance width="474"/>
  <unicode hex="0491"/>
  <outline>
    <contour>
      <point x="36" y="0" type="line"/>
      <point x="146" y="0" type="line"/>
      <point x="233" y="436" type="line"/>
      <point x="502" y="436" type="line"/>
      <point x="543" y="641" type="line"/>
      <point x="440" y="641" type="line"/>
      <point x="418" y="532" type="line"/>
      <point x="142" y="532" type="line"/>
    </contour>
  </outline>
</glyph>
<glyph name="ghestroke-cy" format="2">
  <advance width="522"/>
  <unicode hex="0493"/>
  <outline>
    <contour>
      <point x="31" y="188" type="line"/>
      <point x="427" y="188" type="line"/>
      <point x="443" y="265" type="line"/>
      <point x="47" y="265" type="line"/>
    </contour>
    <component base="ge-cy" xOffset="13"/>
  </outline>
</glyph>
<glyph name="Kaverticalstroke-cy" format="2">
  <advance width="745"/>
  <unicode hex="049C"/>
  <outline>
    <contour>
      <point x="545" y="0" type="line"/>
      <point x="676" y="0" type="line"/>
      <point x="493" y="401" type="line"/>
      <point x="392" y="343" type="line"/>
    </contour>
    <contour>
      <point x="51" y="0" type="line"/>
      <point x="163" y="0" type="line"/>
      <point x="303" y="700" type="line"/>
      <point x="191" y="700" type="line"/>
    </contour>
    <contour>
      <point x="189" y="301" type="line"/>
      <point x="453" y="301" type="line"/>
      <point x="473" y="402" type="line"/>
      <point x="209" y="402" type="line"/>
    </contour>
    <contour>
      <point x="257" y="167" type="line"/>
      <point x="342" y="167" type="line"/>
      <point x="416" y="537" type="line"/>
      <point x="331" y="537" type="line"/>
    </contour>
    <contour>
      <point x="495" y="337" type="line"/>
      <point x="801" y="700" type="line"/>
      <point x="676" y="700" type="line"/>
      <point x="389" y="352" type="line"/>
    </contour>
  </outline>
</glyph>
<glyph name="Haabkhasian-cy" format="2">
  <advance width="985"/>
  <unicode hex="04A8"/>
  <outline>
    <contour>
      <point x="411" y="-9" type="curve" smooth="yes"/>
      <point x="688" y="-9"/>
      <point x="938" y="212"/>
      <point x="938" y="463" type="curve" smooth="yes"/>
      <point x="938" y="610"/>
      <point x="845" y="709"/>
      <point x="700" y="709" type="curve" smooth="yes"/>
      <point x="515" y="709"/>
      <point x="371" y="546"/>
      <point x="371" y="344" type="curve" smooth="yes"/>
      <point x="371" y="84"/>
      <point x="600" y="-65"/>
      <point x="885" y="12" type="curve"/>
      <point x="891" y="96" type="line"/>
      <point x="653" y="32"/>
      <point x="488" y="130"/>
      <point x="488" y="343" type="curve" smooth="yes"/>
      <point x="488" y="493"/>
      <point x="576" y="607"/>
      <point x="696" y="607" type="curve" smooth="yes"/>
      <point x="778" y="607"/>
      <point x="819" y="553"/>
      <point x="819" y="458" type="curve" smooth="yes"/>
      <point x="819" y="247"/>
      <point x="638" y="76"/>
      <point x="430" y="76" type="curve" smooth="yes"/>
      <point x="277" y="76"/>
      <point x="183" y="168"/>
      <point x="183" y="310" type="curve" smooth="yes"/>
      <point x="183" y="440"/>
      <point x="261" y="570"/>
      <point x="397" y="657" type="curve"/>
      <point x="303" y="708" type="line"/>
      <point x="155" y="603"/>
      <point x="67" y="456"/>
      <point x="67" y="304" type="curve" smooth="yes"/>
      <point x="67" y="115"/>
      <point x="203" y="-9"/>
    </contour>
  </outline>
</glyph>
<glyph name="Ustrait-cy" format="2">
  <advance width="676"/>
  <unicode hex="04AE"/>
  <anchor x="284" y="0" name="bottom"/>
  <anchor x="330" y="235" name="center"/>
  <anchor x="425" y="700" name="top"/>
  <anchor x="149" y="700" name="topleft"/>
  <outline>
    <contour>
      <point x="227" y="0" type="line"/>
      <point x="341" y="0" type="line"/>
      <point x="396" y="275" type="line"/>
      <point x="357" y="198" type="line"/>
      <point x="758" y="700" type="line"/>
      <point x="637" y="700" type="line"/>
      <point x="306" y="289" type="line"/>
      <point x="371" y="290" type="line"/>
      <point x="205" y="700" type="line"/>
      <point x="92" y="700" type="line"/>
      <point x="295" y="199" type="line"/>
      <point x="282" y="275" type="line"/>
    </contour>
  </outline>
</glyph>
<glyph name="cheverticalstroke-cy" format="2">
  <advance width="614"/>
  <unicode hex="04B9"/>
  <outline>
    <contour>
      <point x="210" y="75" type="line"/>
      <point x="290" y="75" type="line"/>
      <point x="348" y="363" type="line"/>
      <point x="268" y="363" type="line"/>
    </contour>
    <component base="che-cy"/>
  </outline>
</glyph>
<glyph name="obarred-cy" format="2">
  <advance width="660"/>
  <unicode hex="04E9"/>
  <anchor x="380" y="532" name="top"/>
  <outline>
    <contour>
      <point x="87" y="228" type="line"/>
      <point x="581" y="228" type="line"/>
      <point x="581" y="304" type="line"/>
      <point x="87" y="304" type="line"/>
    </contour>
    <contour>
      <point x="300" y="-6" type="curve" smooth="yes"/>
      <point x="488" y="-6"/>
      <point x="619" y="127"/>
      <point x="619" y="306" type="curve" smooth="yes"/>
      <point x="619" y="447"/>
      <point x="519" y="538"/>
      <point x="360" y="538" type="curve" smooth="yes"/>
      <point x="172" y="538"/>
      <point x="41" y="405"/>
      <point x="41" y="226" type="curve" smooth="yes"/>
      <point x="41" y="86"/>
      <point x="141" y="-6"/>
    </contour>
    <contour>
      <point x="307" y="90" type="curve" smooth="yes"/>
      <point x="206" y="90"/>
      <point x="152" y="143"/>
      <point x="152" y="231" type="curve" smooth="yes"/>
      <point x="152" y="355"/>
      <point x="235" y="442"/>
      <point x="353" y="442" type="curve" smooth="yes"/>
      <point x="454" y="442"/>
      <point x="508" y="389"/>
      <point x="508" y="301" type="curve" smooth="yes"/>
      <point x="508" y="177"/>
      <point x="425" y="90"/>
    </contour>
  </outline>
</glyph>
<glyph name="hahook-cy" format="2">
  <advance width="549"/>
  <unicode hex="04FD"/>
  <outline>
    <contour>
      <point x="-47" y="0" type="line"/>
      <point x="81" y="0" type="line"/>
      <point x="592" y="532" type="line"/>
      <point x="468" y="532" type="line"/>
      <point x="292" y="348" type="line"/>
      <point x="189" y="532" type="line"/>
      <point x="75" y="532" type="line"/>
      <point x="221" y="275" type="line"/>
    </contour>
    <contour>
      <point x="275" y="-201" type="curve" smooth="yes"/>
      <point x="390" y="-201"/>
      <point x="471" y="-131"/>
      <point x="471" y="-29" type="curve" smooth="yes"/>
      <point x="471" y="39"/>
      <point x="434" y="117"/>
      <point x="315" y="301" type="curve"/>
      <point x="228" y="255" type="line"/>
      <point x="325" y="103"/>
      <point x="360" y="29"/>
      <point x="360" y="-22" type="curve" smooth="yes"/>
      <point x="360" y="-72"/>
      <point x="320" y="-107"/>
      <point x="263" y="-107" type="curve" smooth="yes"/>
      <point x="238" y="-107"/>
      <point x="214" y="-99"/>
      <point x="194" y="-88" type="curve"/>
      <point x="151" y="-171" type="line"/>
      <point x="187" y="-191"/>
      <point x="231" y="-201"/>
    </contour>
  </outline>
</glyph>
<glyph name="reversedze-cy" format="2">
  <advance width="548"/>
  <unicode hex="0511"/>
  <outline>
    <contour>
      <point x="255" y="-8" type="curve" smooth="yes"/>
      <point x="339" y="-8"/>
      <point x="420" y="13"/>
      <point x="481" y="52" type="curve"/>
      <point x="460" y="133" type="line"/>
      <point x="409" y="103"/>
      <point x="335" y="85"/>
      <point x="270" y="85" type="curve" smooth="yes"/>
      <point x="188" y="85"/>
      <point x="141" y="113"/>
      <point x="141" y="160" type="curve" smooth="yes"/>
      <point x="141" y="207"/>
      <point x="190" y="236"/>
      <point x="270" y="236" type="curve" smooth="yes"/>
      <point x="370" y="236" type="line"/>
      <point x="385" y="313" type="line"/>
      <point x="290" y="313" type="line" smooth="yes"/>
      <point x="231" y="313"/>
      <point x="198" y="332"/>
      <point x="198" y="367" type="curve" smooth="yes"/>
      <point x="198" y="414"/>
      <point x="257" y="446"/>
      <point x="344" y="445" type="curve" smooth="yes"/>
      <point x="397" y="444"/>
      <point x="449" y="433"/>
      <point x="500" y="410" type="curve"/>
      <point x="546" y="489" type="line"/>
      <point x="492" y="520"/>
      <point x="426" y="537"/>
      <point x="353" y="538" type="curve" smooth="yes"/>
      <point x="204" y="541"/>
      <point x="89" y="476"/>
      <point x="89" y="376" type="curve" smooth="yes"/>
      <point x="89" y="313"/>
      <point x="136" y="272"/>
      <point x="216" y="266" type="curve"/>
      <point x="212" y="281" type="line"/>
      <point x="94" y="273"/>
      <point x="28" y="221"/>
      <point x="28" y="141" type="curve" smooth="yes"/>
      <point x="28" y="50"/>
      <point x="115" y="-8"/>
    </contour>
  </outline>
</glyph>
<glyph name="Elhook-cy" format="2">
  <advance width="791"/>
  <unicode hex="0512"/>
  <outline>
    <contour>
      <point x="307" y="-166" type="line"/>
      <point x="431" y="-249"/>
      <point x="598" y="-181"/>
      <point x="627" y="-35" type="curve" smooth="yes"/>
      <point x="774" y="700" type="line"/>
      <point x="270" y="700" type="line"/>
      <point x="201" y="412" type="line" smooth="yes"/>
      <point x="144" y="174"/>
      <point x="97" y="98"/>
      <point x="8" y="98" type="curve" smooth="yes"/>
      <point x="-2" y="98"/>
      <point x="-10" y="99"/>
      <point x="-18" y="101" type="curve"/>
      <point x="-38" y="1" type="line"/>
      <point x="-6" y="-6"/>
      <point x="10" y="-9"/>
      <point x="32" y="-9" type="curve" smooth="yes"/>
      <point x="161" y="-9"/>
      <point x="228" y="98"/>
      <point x="302" y="408" type="curve" smooth="yes"/>
      <point x="348" y="601" type="line"/>
      <point x="641" y="601" type="line"/>
      <point x="516" y="-23" type="line" smooth="yes"/>
      <point x="501" y="-98"/>
      <point x="412" y="-132"/>
      <point x="349" y="-87" type="curve"/>
    </contour>
  </outline>
</glyph>
<glyph name="elhook-cy" format="2">
  <advance width="652"/>
  <unicode hex="0513"/>
  <anchor x="393" y="0" name="bottomleft"/>
  <outline>
    <contour>
      <point x="507" y="-21" type="curve"/>
      <point x="617" y="532" type="line"/>
      <point x="198" y="532" type="line"/>
      <point x="148" y="329" type="line" smooth="yes"/>
      <point x="111" y="178"/>
      <point x="72" y="97"/>
      <point x="14" y="97" type="curve" smooth="yes"/>
      <point x="4" y="97"/>
      <point x="-8" y="97"/>
      <point x="-17" y="99" type="curve"/>
      <point x="-49" y="0" type="line"/>
      <point x="-27" y="-6"/>
      <point x="-4" y="-9"/>
      <point x="25" y="-9" type="curve" smooth="yes"/>
      <point x="131" y="-9"/>
      <point x="192" y="112"/>
      <point x="245" y="323" type="curve" smooth="yes"/>
      <point x="281" y="465" type="line"/>
      <point x="250" y="436" type="line"/>
      <point x="513" y="436" type="line"/>
      <point x="493" y="463" type="line"/>
      <point x="396" y="-19" type="line"/>
      <point x="384" y="-78"/>
      <point x="350" y="-108"/>
      <point x="299" y="-108" type="curve" smooth="yes"/>
      <point x="272" y="-108"/>
      <point x="249" y="-100"/>
      <point x="233" y="-85" type="curve"/>
      <point x="184" y="-168" type="line"/>
      <point x="209" y="-190"/>
      <point x="252" y="-200"/>
      <point x="296" y="-200" type="curve" smooth="yes"/>
      <point x="409" y="-200"/>
      <point x="485" y="-129"/>
    </contour>
  </outline>
</glyph>
<glyph name="We-cy" format="2">
  <advance width="1093"/>
  <unicode hex="051C"/>
  <outline>
    <contour>
      <point x="196" y="0" type="line"/>
      <point x="316" y="0" type="line"/>
      <point x="629" y="583" type="line"/>
      <point x="597" y="583" type="line"/>
      <point x="672" y="0" type="line"/>
      <point x="792" y="0" type="line"/>
      <point x="1162" y="700" type="line"/>
      <point x="1050" y="700" type="line"/>
      <point x="710" y="61" type="line"/>
      <point x="770" y="61" type="line"/>
      <point x="689" y="700" type="line"/>
      <point x="583" y="700" type="line"/>
      <point x="241" y="61" type="line"/>
      <point x="303" y="61" type="line"/>
      <point x="222" y="700" type="line"/>
      <point x="105" y="700" type="line"/>
    </contour>
  </outline>
</glyph>
<glyph name="Germandbls" format="2">
  <advance width="766"/>
  <unicode hex="1E9E"/>
  <anchor x="350" y="0" name="bottom"/>
  <anchor x="490" y="700" name="top"/>
  <outline>
    <contour>
      <point x="436" y="-9" type="curve" smooth="yes"/>
      <point x="599" y="-9"/>
      <point x="706" y="87"/>
      <point x="706" y="229" type="curve" smooth="yes"/>
      <point x="706" y="340"/>
      <point x="622" y="409"/>
      <point x="500" y="409" type="curve" smooth="yes"/>
      <point x="477" y="409"/>
      <point x="451" y="407"/>
      <point x="426" y="400" type="curve"/>
      <point x="471" y="339" type="line"/>
      <point x="709" y="564" type="line"/>
      <point x="723" y="638" type="line"/>
      <point x="669" y="684"/>
      <point x="580" y="709"/>
      <point x="488" y="709" type="curve" smooth="yes"/>
      <point x="282" y="709"/>
      <point x="163" y="609"/>
      <point x="124" y="415" type="curve" smooth="yes"/>
      <point x="41" y="0" type="line"/>
      <point x="155" y="0" type="line"/>
      <point x="236" y="407" type="line" smooth="yes"/>
      <point x="263" y="543"/>
      <point x="344" y="612"/>
      <point x="479" y="612" type="curve" smooth="yes"/>
      <point x="554" y="612"/>
      <point x="613" y="591"/>
      <point x="654" y="553" type="curve"/>
      <point x="651" y="630" type="line"/>
      <point x="376" y="369" type="line"/>
      <point x="387" y="314" type="line"/>
      <point x="410" y="321"/>
      <point x="439" y="325"/>
      <point x="464" y="325" type="curve" smooth="yes"/>
      <point x="544" y="325"/>
      <point x="591" y="289"/>
      <point x="591" y="224" type="curve" smooth="yes"/>
      <point x="591" y="140"/>
      <point x="530" y="88"/>
      <point x="437" y="88" type="curve" smooth="yes"/>
      <point x="390" y="88"/>
      <point x="348" y="97"/>
      <point x="312" y="112" type="curve"/>
      <point x="281" y="19" type="line"/>
      <point x="320" y="1"/>
      <point x="380" y="-9"/>
    </contour>
  </outline>
</glyph>
<glyph name="quoteright" format="2">
  <advance width="235"/>
  <unicode hex="2019"/>
  <outline>
    <contour>
      <point x="89" y="453" type="line"/>
      <point x="160" y="453" type="line"/>
      <point x="248" y="606" type="line" smooth="yes"/>
      <point x="265" y="636"/>
      <point x="273" y="654"/>
      <point x="273" y="677" type="curve" smooth="yes"/>
      <point x="273" y="719"/>
      <point x="243" y="748"/>
      <point x="203" y="748" type="curve" smooth="yes"/>
      <point x="161" y="748"/>
      <point x="124" y="716"/>
      <point x="124" y="668" type="curve" smooth="yes"/>
      <point x="124" y="627"/>
      <point x="155" y="596"/>
      <point x="195" y="596" type="curve"/>
      <point x="184" y="666" type="line"/>
    </contour>
  </outline>
</glyph>
<glyph name="quotesinglbase" format="2">
  <advance width="235"/>
  <unicode hex="201A"/>
  <outline>
    <contour>
      <point x="-32" y="-150" type="line"/>
      <point x="39" y="-150" type="line"/>
      <point x="127" y="3" type="line" smooth="yes"/>
      <point x="145" y="34"/>
      <point x="153" y="51"/>
      <point x="153" y="74" type="curve" smooth="yes"/>
      <point x="153" y="116"/>
      <point x="123" y="146"/>
      <point x="83" y="146" type="curve" smooth="yes"/>
      <point x="40" y="146"/>
      <point x="4" y="113"/>
      <point x="4" y="65" type="curve" smooth="yes"/>
      <point x="4" y="24"/>
      <point x="35" y="-6"/>
      <point x="75" y="-6" type="curve"/>
      <point x="64" y="63" type="line"/>
    </contour>
  </outline>
</glyph>
<glyph name="guilsinglright" format="2">
  <advance width="320"/>
  <unicode hex="203A"/>
  <outline>
    <contour>
      <point x="172" y="459" type="line"/>
      <point x="74" y="459" type="line"/>
      <point x="197" y="218" type="line"/>
      <point x="203" y="306" type="line"/>
      <point x="-8" y="74" type="line"/>
      <point x="95" y="74" type="line"/>
      <point x="276" y="266" type="line"/>
    </contour>
  </outline>
</glyph>
<glyph name="commercialMinusSign" format="2">
  <advance width="516"/>
  <unicode hex="2052"/>
  <outline>
    <contour>
      <point x="37" y="0" type="line"/>
      <point x="120" y="0" type="line"/>
      <point x="514" y="700" type="line"/>
      <point x="430" y="700" type="line"/>
    </contour>
    <contour>
      <point x="352" y="0" type="curve" smooth="yes"/>
      <point x="390" y="0"/>
      <point x="420" y="31"/>
      <point x="420" y="69" type="curve" smooth="yes"/>
      <point x="420" y="105"/>
      <point x="394" y="128"/>
      <point x="360" y="128" type="curve" smooth="yes"/>
      <point x="323" y="128"/>
      <point x="292" y="99"/>
      <point x="292" y="60" type="curve" smooth="yes"/>
      <point x="292" y="24"/>
      <point x="319" y="0"/>
    </contour>
    <contour>
      <point x="190" y="572" type="curve" smooth="yes"/>
      <point x="228" y="572"/>
      <point x="258" y="603"/>
      <point x="258" y="641" type="curve" smooth="yes"/>
      <point x="258" y="677"/>
      <point x="232" y="700"/>
      <point x="198" y="700" type="curve" smooth="yes"/>
      <point x="161" y="700"/>
      <point x="130" y="671"/>
      <point x="130" y="632" type="curve" smooth="yes"/>
      <point x="130" y="596"/>
      <point x="157" y="572"/>
    </contour>
  </outline>
</glyph>
<glyph name="won" format="2">
  <advance width="1206"/>
  <unicode hex="20A9"/>
  <outline>
    <contour>
      <point x="235" y="0" type="line"/>
      <point x="357" y="0" type="line"/>
      <point x="687" y="583" type="line"/>
      <point x="654" y="583" type="line"/>
      <point x="743" y="0" type="line"/>
      <point x="865" y="0" type="line"/>
      <point x="1248" y="700" type="line"/>
      <point x="1133" y="700" type="line"/>
      <point x="780" y="62" type="line"/>
      <point x="839" y="62" type="line"/>
      <point x="744" y="700" type="line"/>
      <point x="636" y="700" type="line"/>
      <point x="278" y="62" type="line"/>
      <point x="339" y="62" type="line"/>
      <point x="247" y="700" type="line"/>
      <point x="132" y="700" type="line"/>
    </contour>
    <contour>
      <point x="27" y="249" type="line"/>
      <point x="1172" y="249" type="line"/>
      <point x="1185" y="313" type="line"/>
      <point x="40" y="313" type="line"/>
    </contour>
    <contour>
      <point x="55" y="387" type="line"/>
      <point x="1200" y="387" type="line"/>
      <point x="1213" y="451" type="line"/>
      <point x="68" y="451" type="line"/>
    </contour>
  </outline>
</glyph>
<glyph name="cedi" format="2">
  <advance width="725"/>
  <unicode hex="20B5"/>
  <outline>
    <contour>
      <point x="292" y="-120" type="line"/>
      <point x="364" y="-120" type="line"/>
      <point x="552" y="820" type="line"/>
      <point x="480" y="820" type="line"/>
    </contour>
    <contour>
      <point x="395" y="-9" type="curve" smooth="yes"/>
      <point x="509" y="-9"/>
      <point x="610" y="26"/>
      <point x="676" y="100" type="curve"/>
      <point x="609" y="175" type="line"/>
      <point x="555" y="120"/>
      <point x="485" y="93"/>
      <point x="403" y="93" type="curve" smooth="yes"/>
      <point x="252" y="93"/>
      <point x="173" y="174"/>
      <point x="173" y="295" type="curve" smooth="yes"/>
      <point x="173" y="464"/>
      <point x="290" y="607"/>
      <point x="480" y="607" type="curve" smooth="yes"/>
      <point x="565" y="607"/>
      <point x="627" y="578"/>
      <point x="667" y="525" type="curve"/>
      <point x="749" y="596" type="line"/>
      <point x="701" y="669"/>
      <point x="606" y="709"/>
      <point x="488" y="709" type="curve" smooth="yes"/>
      <point x="227" y="709"/>
      <point x="58" y="523"/>
      <point x="58" y="288" type="curve" smooth="yes"/>
      <point x="58" y="112"/>
      <point x="183" y="-9"/>
    </contour>
  </outline>
</glyph>
<glyph name="southWestArrow" format="2">
  <advance width="600"/>
  <unicode hex="2199"/>
  <outline>
    <contour>
      <point x="462" y="145" type="line"/>
      <point x="222" y="200" type="line"/>
      <point x="167" y="445" type="line"/>
      <point x="105" y="379" type="line"/>
      <point x="154" y="128" type="line"/>
      <point x="401" y="79" type="line"/>
    </contour>
    <contour>
      <point x="501" y="415" type="line"/>
      <point x="439" y="482" type="line"/>
      <point x="179" y="222" type="line"/>
      <point x="240" y="155" type="line"/>
    </contour>
  </outline>
</glyph>
<glyph name="product" format="2">
  <advance width="811"/>
  <unicode hex="220F"/>
  <outline>
    <contour>
      <point x="8" y="-194" type="line"/>
      <point x="123" y="-194" type="line"/>
      <point x="281" y="596" type="line"/>
      <point x="662" y="596" type="line"/>
      <point x="504" y="-194" type="line"/>
      <point x="619" y="-194" type="line"/>
      <point x="798" y="700" type="line"/>
      <point x="187" y="700" type="line"/>
    </contour>
  </outline>
</glyph>
<glyph name="notequal" format="2">
  <advance width="586"/>
  <unicode hex="2260"/>
  <outline>
    <contour>
      <point x="58" y="68" type="line"/>
      <point x="154" y="68" type="line"/>
      <point x="563" y="632" type="line"/>
      <point x="467" y="632" type="line"/>
    </contour>
    <contour>
      <point x="50" y="185" type="line"/>
      <point x="504" y="185" type="line"/>
      <point x="522" y="275" type="line"/>
      <point x="68" y="275" type="line"/>
    </contour>
    <contour>
      <point x="98" y="424" type="line"/>
      <point x="551" y="424" type="line"/>
      <point x="570" y="514" type="line"/>
      <point x="116" y="514" type="line"/>
    </contour>
  </outline>
</glyph>
<glyph name="whiteSquare" format="2">
  <advance width="600"/>
  <unicode hex="25A1"/>
  <outline>
    <contour>
      <point x="106" y="71" type="line"/>
      <point x="494" y="71" type="line"/>
      <point x="494" y="459" type="line"/>
      <point x="106" y="459" type="line"/>
    </contour>
    <contour>
      <point x="166" y="136" type="line"/>
      <point x="166" y="394" type="line"/>
      <point x="434" y="394" type="line"/>
      <point x="434" y="136" type="line"/>
    </contour>
  </outline>
</glyph>
<glyph name="leftanglebracket-math" format="2">
  <advance width="331"/>
  <unicode hex="27E8"/>
  <outline>
    <contour>
      <point x="104" y="-194" type="line"/>
      <point x="204" y="-194" type="line"/>
      <point x="140" y="274" type="line"/>
      <point x="391" y="742" type="line"/>
      <point x="291" y="742" type="line"/>
      <point x="33" y="274" type="line"/>
    </contour>
  </outline>
</glyph>
<glyph name="A.ss01" format="2">
  <advance width="799"/>
  <anchor x="346" y="0" name="bottom"/>
  <anchor x="652" y="0" name="ogonek"/>
  <anchor x="486" y="700" name="top"/>
  <anchor x="160" y="700" name="topleft"/>
  <outline>
    <contour>
      <point x="41" y="0" type="line"/>
      <point x="153" y="0" type="line"/>
      <point x="233" y="400" type="line" smooth="yes"/>
      <point x="262" y="546"/>
      <point x="337" y="607"/>
      <point x="460" y="607" type="curve" smooth="yes"/>
      <point x="586" y="607"/>
      <point x="644" y="535"/>
      <point x="616" y="394" type="curve" smooth="yes"/>
      <point x="538" y="0" type="line"/>
      <point x="652" y="0" type="line"/>
      <point x="729" y="387" type="line" smooth="yes"/>
      <point x="769" y="589"/>
      <point x="664" y="709"/>
      <point x="471" y="709" type="curve" smooth="yes"/>
      <point x="282" y="709"/>
      <point x="162" y="610"/>
      <point x="121" y="402" type="curve" smooth="yes"/>
    </contour>
    <contour>
      <point x="152" y="186" type="line"/>
      <point x="618" y="186" type="line"/>
      <point x="637" y="285" type="line"/>
      <point x="171" y="285" type="line"/>
    </contour>
  </outline>
</glyph>
<glyph name="Aogonek.loclNAV" format="2">
  <advance width="740"/>
  <anchor x="457" y="700" name="top"/>
  <anchor x="200" y="700" name="topleft"/>
  <outline>
    <contour>
      <point x="-56" y="0" type="line"/>
      <point x="67" y="0" type="line"/>
      <point x="471" y="639" type="line"/>
      <point x="425" y="639" type="line"/>
      <point x="576" y="0" type="line"/>
      <point x="690" y="0" type="line"/>
      <point x="514" y="700" type="line"/>
      <point x="401" y="700" type="line"/>
    </contour>
    <contour>
      <point x="296" y="-226" type="curve" smooth="yes"/>
      <point x="331" y="-226"/>
      <point x="363" y="-217"/>
      <point x="390" y="-203" type="curve"/>
      <point x="377" y="-147" type="line"/>
      <point x="358" y="-157"/>
      <point x="333" y="-163"/>
      <point x="313" y="-163" type="curve" smooth="yes"/>
      <point x="281" y="-163"/>
      <point x="261" y="-148"/>
      <point x="261" y="-123" type="curve" smooth="yes"/>
      <point x="261" y="-87"/>
      <point x="303" y="-51"/>
      <point x="380" y="-24" type="curve"/>
      <point x="363" y="27" type="line"/>
      <point x="246" y="-10"/>
      <point x="182" y="-70"/>
      <point x="182" y="-136" type="curve" smooth="yes"/>
      <point x="182" y="-193"/>
      <point x="229" y="-226"/>
    </contour>
    <contour>
      <point x="118" y="168" type="line"/>
      <point x="568" y="168" type="line"/>
      <point x="553" y="260" type="line"/>
      <point x="167" y="260" type="line"/>
    </contour>
  </outline>
</glyph>
<glyph name="Aogonek.loclNAV.ss01" format="2">
  <advance width="799"/>
  <anchor x="652" y="0" name="ogonek"/>
  <anchor x="486" y="700" name="top"/>
  <anchor x="160" y="700" name="topleft"/>
  <outline>
    <contour>
      <point x="41" y="0" type="line"/>
      <point x="153" y="0" type="line"/>
      <point x="233" y="400" type="line" smooth="yes"/>
      <point x="262" y="546"/>
      <point x="337" y="607"/>
      <point x="460" y="607" type="curve" smooth="yes"/>
      <point x="586" y="607"/>
      <point x="644" y="535"/>
      <point x="616" y="394" type="curve" smooth="yes"/>
      <point x="538" y="0" type="line"/>
      <point x="652" y="0" type="line"/>
      <point x="729" y="387" type="line" smooth="yes"/>
      <point x="769" y="589"/>
      <point x="664" y="709"/>
      <point x="471" y="709" type="curve" smooth="yes"/>
      <point x="282" y="709"/>
      <point x="162" y="610"/>
      <point x="121" y="402" type="curve" smooth="yes"/>
    </contour>
    <contour>
      <point x="152" y="186" type="line"/>
      <point x="618" y="186" type="line"/>
      <point x="637" y="285" type="line"/>
      <point x="171" y="285" type="line"/>
    </contour>
    <contour>
      <point x="324" y="-226" type="curve" smooth="yes"/>
      <point x="359" y="-226"/>
      <point x="391" y="-217"/>
      <point x="418" y="-203" type="curve"/>
      <point x="405" y="-147" type="line"/>
      <point x="386" y="-157"/>
      <point x="361" y="-163"/>
      <point x="341" y="-163" type="curve" smooth="yes"/>
      <point x="309" y="-163"/>
      <point x="289" y="-148"/>
      <point x="289" y="-123" type="curve" smooth="yes"/>
      <point x="289" y="-87"/>
      <point x="331" y="-53"/>
      <point x="408" y="-26" type="curve"/>
      <point x="391" y="27" type="line"/>
      <point x="274" y="-10"/>
      <point x="210" y="-70"/>
      <point x="210" y="-136" type="curve" smooth="yes"/>
      <point x="210" y="-193"/>
      <point x="257" y="-226"/>
    </contour>
  </outline>
</glyph>
<glyph name="Eogonek.loclNAV.ss01" format="2">
  <advance width="649"/>
  <anchor x="441" y="700" name="top"/>
  <anchor x="125" y="700" name="topleft"/>
  <outline>
    <contour>
      <point x="344" y="39" type="line"/>
      <point x="233" y="-5"/>
      <point x="172" y="-63"/>
      <point x="172" y="-133" type="curve" smooth="yes"/>
      <point x="172" y="-193"/>
      <point x="218" y="-226"/>
      <point x="286" y="-226" type="curve" smooth="yes"/>
      <point x="322" y="-226"/>
      <point x="353" y="-217"/>
      <point x="380" y="-203" type="curve"/>
      <point x="367" y="-147" type="line"/>
      <point x="348" y="-157"/>
      <point x="324" y="-163"/>
      <point x="303" y="-163" type="curve" smooth="yes"/>
      <point x="271" y="-163"/>
      <point x="251" y="-149"/>
      <point x="251" y="-119" type="curve" smooth="yes"/>
      <point x="251" y="-64"/>
      <point x="316" y="-26"/>
      <point x="417" y="-2" type="curve" smooth="yes"/>
      <point x="482" y="13"/>
      <point x="547" y="30"/>
      <point x="603" y="67" type="curve"/>
      <point x="567" y="157" type="line"/>
      <point x="512" y="116"/>
      <point x="422" y="89"/>
      <point x="323" y="89" type="curve" smooth="yes"/>
      <point x="203" y="89"/>
      <point x="147" y="126"/>
      <point x="147" y="191" type="curve" smooth="yes"/>
      <point x="147" y="263"/>
      <point x="215" y="305"/>
      <point x="321" y="305" type="curve" smooth="yes"/>
      <point x="518" y="305" type="line"/>
      <point x="538" y="403" type="line"/>
      <point x="355" y="403" type="line" smooth="yes"/>
      <point x="282" y="403"/>
      <point x="241" y="432"/>
      <point x="241" y="488" type="curve" smooth="yes"/>
      <point x="241" y="561"/>
      <point x="312" y="611"/>
      <point x="441" y="611" type="curve" smooth="yes"/>
      <point x="505" y="611"/>
      <point x="576" y="599"/>
      <point x="638" y="564" type="curve"/>
      <point x="677" y="655" type="line"/>
      <point x="620" y="690"/>
      <point x="536" y="709"/>
      <point x="446" y="709" type="curve" smooth="yes"/>
      <point x="252" y="709"/>
      <point x="126" y="620"/>
      <point x="126" y="489" type="curve" smooth="yes"/>
      <point x="126" y="400"/>
      <point x="184" y="344"/>
      <point x="269" y="344" type="curve"/>
      <point x="270" y="378" type="line"/>
      <point x="133" y="378"/>
      <point x="32" y="294"/>
      <point x="32" y="179" type="curve" smooth="yes"/>
      <point x="32" y="60"/>
      <point x="142" y="-9"/>
      <point x="310" y="-9" type="curve" smooth="yes"/>
      <point x="320" y="-9"/>
      <point x="330" y="-9"/>
      <point x="340" y="-8" type="curve"/>
    </contour>
  </outline>
</glyph>
<glyph name="Udieresis.ss01.alt.BRACKET.133" format="2">
  <advance width="794"/>
  <outline>
    <contour>
      <point x="327" y="-9" type="curve" smooth="yes"/>
      <point x="437" y="-9"/>
      <point x="522" y="37"/>
      <point x="578" y="119" type="curve"/>
      <point x="565" y="170" type="line"/>
      <point x="531" y="0" type="line"/>
      <point x="641" y="0" type="line"/>
      <point x="781" y="700" type="line"/>
      <point x="667" y="700" type="line"/>
      <point x="586" y="295" type="line" smooth="yes"/>
      <point x="558" y="155"/>
      <point x="469" y="93"/>
      <point x="359" y="93" type="curve" smooth="yes"/>
      <point x="240" y="93"/>
      <point x="187" y="162"/>
      <point x="215" y="300" type="curve" smooth="yes"/>
      <point x="295" y="700" type="line"/>
      <point x="181" y="700" type="line"/>
      <point x="102" y="304" type="line" smooth="yes"/>
      <point x="62" y="105"/>
      <point x="160" y="-9"/>
    </contour>
    <contour>
      <point x="441" y="461" type="curve" smooth="yes"/>
      <point x="475" y="461"/>
      <point x="501" y="487"/>
      <point x="501" y="524" type="curve" smooth="yes"/>
      <point x="501" y="552"/>
      <point x="479" y="573"/>
      <point x="448" y="573" type="curve" smooth="yes"/>
      <point x="415" y="573"/>
      <point x="389" y="548"/>
      <point x="389" y="511" type="curve" smooth="yes"/>
      <point x="389" y="482"/>
      <point x="411" y="461"/>
    </contour>
    <contour>
      <point x="467" y="594" type="curve" smooth="yes"/>
      <point x="500" y="594"/>
      <point x="527" y="620"/>
      <point x="527" y="657" type="curve" smooth="yes"/>
      <point x="527" y="685"/>
      <point x="505" y="706"/>
      <point x="474" y="706" type="curve" smooth="yes"/>
      <point x="441" y="706"/>
      <point x="415" y="681"/>
      <point x="415" y="644" type="curve" smooth="yes"/>
      <point x="415" y="615"/>
      <point x="436" y="594"/>
    </contour>
  </outline>
</glyph>
<glyph name="Udieresis.ss01.alt" format="2">
  <advance width="794"/>
  <outline>
    <contour>
      <point x="327" y="-9" type="curve" smooth="yes"/>
      <point x="437" y="-9"/>
      <point x="522" y="37"/>
      <point x="578" y="119" type="curve"/>
      <point x="565" y="170" type="line"/>
      <point x="531" y="0" type="line"/>
      <point x="641" y="0" type="line"/>
      <point x="781" y="700" type="line"/>
      <point x="667" y="700" type="line"/>
      <point x="586" y="295" type="line" smooth="yes"/>
      <point x="558" y="155"/>
      <point x="469" y="93"/>
      <point x="359" y="93" type="curve" smooth="yes"/>
      <point x="240" y="93"/>
      <point x="187" y="162"/>
      <point x="215" y="300" type="curve" smooth="yes"/>
      <point x="295" y="700" type="line"/>
      <point x="181" y="700" type="line"/>
      <point x="102" y="304" type="line" smooth="yes"/>
      <point x="62" y="105"/>
      <point x="160" y="-9"/>
    </contour>
    <contour>
      <point x="391" y="594" type="curve" smooth="yes"/>
      <point x="424" y="594"/>
      <point x="451" y="620"/>
      <point x="451" y="657" type="curve" smooth="yes"/>
      <point x="451" y="685"/>
      <point x="429" y="706"/>
      <point x="398" y="706" type="curve" smooth="yes"/>
      <point x="365" y="706"/>
      <point x="339" y="681"/>
      <point x="339" y="644" type="curve" smooth="yes"/>
      <point x="339" y="615"/>
      <point x="360" y="594"/>
    </contour>
    <contour>
      <point x="545" y="594" type="curve" smooth="yes"/>
      <point x="579" y="594"/>
      <point x="605" y="620"/>
      <point x="605" y="657" type="curve" smooth="yes"/>
      <point x="605" y="685"/>
      <point x="583" y="706"/>
      <point x="552" y="706" type="curve" smooth="yes"/>
      <point x="519" y="706"/>
      <point x="493" y="681"/>
      <point x="493" y="644" type="curve" smooth="yes"/>
      <point x="493" y="615"/>
      <point x="515" y="594"/>
    </contour>
  </outline>
</glyph>
<glyph name="Uogonek.loclNAV.ss01" format="2">
  <advance width="794"/>
  <anchor x="341" y="0" name="bottom"/>
  <anchor x="641" y="0" name="ogonek"/>
  <anchor x="481" y="700" name="top"/>
  <anchor x="733" y="700" name="topright"/>
  <outline>
    <contour>
      <point x="325" y="-226" type="curve" smooth="yes"/>
      <point x="361" y="-226"/>
      <point x="392" y="-217"/>
      <point x="419" y="-203" type="curve"/>
      <point x="406" y="-147" type="line"/>
      <point x="387" y="-157"/>
      <point x="363" y="-163"/>
      <point x="342" y="-163" type="curve" smooth="yes"/>
      <point x="309" y="-163"/>
      <point x="290" y="-148"/>
      <point x="290" y="-120" type="curve" smooth="yes"/>
      <point x="290" y="-71"/>
      <point x="346" y="-33"/>
      <point x="411" y="-5" type="curve" smooth="yes"/>
      <point x="476" y="23"/>
      <point x="539" y="52"/>
      <point x="578" y="119" type="curve"/>
      <point x="565" y="170" type="line"/>
      <point x="531" y="0" type="line"/>
      <point x="641" y="0" type="line"/>
      <point x="781" y="700" type="line"/>
      <point x="667" y="700" type="line"/>
      <point x="586" y="295" type="line" smooth="yes"/>
      <point x="558" y="155"/>
      <point x="469" y="93"/>
      <point x="358" y="93" type="curve" smooth="yes"/>
      <point x="241" y="93"/>
      <point x="187" y="162"/>
      <point x="215" y="300" type="curve" smooth="yes"/>
      <point x="295" y="700" type="line"/>
      <point x="181" y="700" type="line"/>
      <point x="102" y="304" type="line" smooth="yes"/>
      <point x="62" y="105"/>
      <point x="160" y="-9"/>
      <point x="327" y="-9" type="curve" smooth="yes"/>
      <point x="344" y="-9"/>
      <point x="359" y="-8"/>
      <point x="375" y="-6" type="curve"/>
      <point x="383" y="46" type="line"/>
      <point x="272" y="-5"/>
      <point x="211" y="-63"/>
      <point x="211" y="-133" type="curve" smooth="yes"/>
      <point x="211" y="-193"/>
      <point x="257" y="-226"/>
    </contour>
  </outline>
</glyph>
<glyph name="Y.ss01" format="2">
  <advance width="787"/>
  <anchor x="626" y="0" name="bottom"/>
  <anchor x="478" y="700" name="top"/>
  <outline>
    <contour>
      <point x="666" y="700" type="line"/>
      <point x="621" y="475" type="line" smooth="yes"/>
      <point x="593" y="335"/>
      <point x="504" y="273"/>
      <point x="394" y="273" type="curve" smooth="yes"/>
      <point x="275" y="273"/>
      <point x="218" y="342"/>
      <point x="246" y="480" type="curve" smooth="yes"/>
      <point x="290" y="700" type="line"/>
      <point x="176" y="700" type="line"/>
      <point x="133" y="484" type="line" smooth="yes"/>
      <point x="93" y="285"/>
      <point x="192" y="171"/>
      <point x="362" y="171" type="curve" smooth="yes"/>
      <point x="472" y="171"/>
      <point x="557" y="217"/>
      <point x="613" y="299" type="curve"/>
      <point x="596" y="349" type="line"/>
      <point x="567" y="206" type="line" smooth="yes"/>
      <point x="537" y="60"/>
      <point x="456" y="-4"/>
      <point x="330" y="-4" type="curve" smooth="yes"/>
      <point x="240" y="-4"/>
      <point x="168" y="25"/>
      <point x="113" y="84" type="curve"/>
      <point x="54" y="-5" type="line"/>
      <point x="111" y="-69"/>
      <point x="201" y="-106"/>
      <point x="325" y="-106" type="curve" smooth="yes"/>
      <point x="513" y="-106"/>
      <point x="639" y="-9"/>
      <point x="680" y="199" type="curve" smooth="yes"/>
      <point x="780" y="700" type="line"/>
    </contour>
  </outline>
</glyph>
<glyph name="aogonek.loclNAV.ss01" format="2">
  <advance width="730"/>
  <anchor x="391" y="532" name="top"/>
  <outline>
    <contour>
      <point x="259" y="-226" type="curve" smooth="yes"/>
      <point x="295" y="-226"/>
      <point x="326" y="-217"/>
      <point x="353" y="-203" type="curve"/>
      <point x="340" y="-147" type="line"/>
      <point x="321" y="-157"/>
      <point x="297" y="-163"/>
      <point x="276" y="-163" type="curve" smooth="yes"/>
      <point x="243" y="-163"/>
      <point x="224" y="-148"/>
      <point x="224" y="-119" type="curve" smooth="yes"/>
      <point x="224" y="-78"/>
      <point x="262" y="-32"/>
      <point x="370" y="8" type="curve" smooth="yes"/>
      <point x="485" y="51"/>
      <point x="560" y="180"/>
      <point x="560" y="317" type="curve" smooth="yes"/>
      <point x="560" y="469"/>
      <point x="469" y="538"/>
      <point x="342" y="538" type="curve" smooth="yes"/>
      <point x="162" y="538"/>
      <point x="36" y="401"/>
      <point x="36" y="231" type="curve" smooth="yes"/>
      <point x="36" y="85"/>
      <point x="129" y="-6"/>
      <point x="280" y="-6" type="curve" smooth="yes"/>
      <point x="296" y="-6"/>
      <point x="315" y="-4"/>
      <point x="328" y="-2" type="curve"/>
      <point x="275" y="20" type="line"/>
      <point x="186" y="-18"/>
      <point x="145" y="-73"/>
      <point x="145" y="-131" type="curve" smooth="yes"/>
      <point x="145" y="-194"/>
      <point x="192" y="-226"/>
    </contour>
    <contour>
      <point x="293" y="90" type="curve" smooth="yes"/>
      <point x="201" y="90"/>
      <point x="147" y="143"/>
      <point x="147" y="237" type="curve" smooth="yes"/>
      <point x="147" y="350"/>
      <point x="225" y="442"/>
      <point x="347" y="442" type="curve" smooth="yes"/>
      <point x="439" y="442"/>
      <point x="493" y="389"/>
      <point x="493" y="295" type="curve" smooth="yes"/>
      <point x="493" y="182"/>
      <point x="415" y="90"/>
    </contour>
    <contour>
      <point x="601" y="-6" type="curve" smooth="yes"/>
      <point x="627" y="-6"/>
      <point x="653" y="-2"/>
      <point x="675" y="6" type="curve"/>
      <point x="686" y="95" type="line"/>
      <point x="674" y="90"/>
      <point x="657" y="86"/>
      <point x="638" y="86" type="curve" smooth="yes"/>
      <point x="590" y="86"/>
      <point x="566" y="115"/>
      <point x="577" y="168" type="curve" smooth="yes"/>
      <point x="650" y="532" type="line"/>
      <point x="540" y="532" type="line"/>
      <point x="513" y="397" type="line"/>
      <point x="498" y="262" type="line"/>
      <point x="478" y="191" type="line"/>
      <point x="471" y="158" type="line" smooth="yes"/>
      <point x="450" y="61"/>
      <point x="501" y="-6"/>
    </contour>
  </outline>
</glyph>
<glyph name="be-cy.loclSRB" format="2">
  <advance width="625"/>
  <outline>
    <contour>
      <point x="264" y="-9" type="curve" smooth="yes"/>
      <point x="442" y="-9"/>
      <point x="588" y="124"/>
      <point x="588" y="283" type="curve" smooth="yes"/>
      <point x="588" y="367"/>
      <point x="547" y="419"/>
      <point x="454" y="471" type="curve" smooth="yes"/>
      <point x="299" y="557"/>
      <point x="269" y="574"/>
      <point x="269" y="612" type="curve" smooth="yes"/>
      <point x="269" y="639"/>
      <point x="285" y="649"/>
      <point x="335" y="649" type="curve" smooth="yes"/>
      <point x="614" y="649" type="line"/>
      <point x="633" y="742" type="line"/>
      <point x="308" y="742" type="line" smooth="yes"/>
      <point x="225" y="742"/>
      <point x="167" y="697"/>
      <point x="167" y="633" type="curve" smooth="yes"/>
      <point x="167" y="567"/>
      <point x="228" y="506"/>
      <point x="351" y="450" type="curve"/>
      <point x="347" y="464" type="line"/>
      <point x="182" y="490"/>
      <point x="26" y="361"/>
      <point x="26" y="201" type="curve" smooth="yes"/>
      <point x="26" y="75"/>
      <point x="123" y="-9"/>
    </contour>
    <contour>
      <point x="271" y="84" type="curve" smooth="yes"/>
      <point x="187" y="84"/>
      <point x="136" y="132"/>
      <point x="136" y="209" type="curve" smooth="yes"/>
      <point x="136" y="312"/>
      <point x="228" y="398"/>
      <point x="340" y="398" type="curve" smooth="yes"/>
      <point x="424" y="398"/>
      <point x="477" y="350"/>
      <point x="477" y="273" type="curve" smooth="yes"/>
      <point x="477" y="170"/>
      <point x="383" y="84"/>
    </contour>
  </outline>
</glyph>
<glyph name="brevecomb.narrow" format="2">
  <anchor x="353" y="532" name="_top"/>
  <anchor x="386" y="699" name="top"/>
  <outline>
    <contour>
      <point x="381" y="601" type="curve" smooth="yes"/>
      <point x="468" y="601"/>
      <point x="525" y="653"/>
      <point x="537" y="741" type="curve"/>
      <point x="466" y="741" type="line"/>
      <point x="459" y="689"/>
      <point x="432" y="663"/>
      <point x="384" y="663" type="curve" smooth="yes"/>
      <point x="338" y="663"/>
      <point x="313" y="692"/>
      <point x="319" y="741" type="curve"/>
      <point x="252" y="741" type="line"/>
      <point x="241" y="655"/>
      <point x="296" y="601"/>
    </contour>
  </outline>
</glyph>
<glyph name="cent.BRACKET.170" format="2">
  <advance width="576"/>
  <outline>
    <contour>
      <point x="293" y="-6" type="curve" smooth="yes"/>
      <point x="391" y="-6"/>
      <point x="481" y="36"/>
      <point x="531" y="107" type="curve"/>
      <point x="450" y="164" type="line"/>
      <point x="414" y="114"/>
      <point x="358" y="90"/>
      <point x="297" y="90" type="curve" smooth="yes"/>
      <point x="201" y="90"/>
      <point x="147" y="143"/>
      <point x="147" y="231" type="curve" smooth="yes"/>
      <point x="147" y="355"/>
      <point x="230" y="442"/>
      <point x="343" y="442" type="curve" smooth="yes"/>
      <point x="409" y="442"/>
      <point x="456" y="417"/>
      <point x="482" y="367" type="curve"/>
      <point x="576" y="418" type="line"/>
      <point x="533" y="498"/>
      <point x="457" y="538"/>
      <point x="352" y="538" type="curve" smooth="yes"/>
      <point x="167" y="538"/>
      <point x="36" y="405"/>
      <point x="36" y="226" type="curve" smooth="yes"/>
      <point x="36" y="86"/>
      <point x="136" y="-6"/>
    </contour>
    <contour>
      <point x="202" y="-120" type="line"/>
      <point x="274" y="-120" type="line"/>
      <point x="307" y="44" type="line"/>
      <point x="235" y="44" type="line"/>
    </contour>
    <contour>
      <point x="323" y="489" type="line"/>
      <point x="395" y="489" type="line"/>
      <point x="428" y="652" type="line"/>
      <point x="355" y="652" type="line"/>
    </contour>
  </outline>
</glyph>
<glyph name="circumflexcomb.loclVIET" format="2">
  <anchor x="353" y="532" name="_top"/>
  <anchor x="379" y="667" name="top"/>
  <outline>
    <contour>
      <point x="183" y="607" type="line"/>
      <point x="283" y="607" type="line"/>
      <point x="429" y="690" type="line"/>
      <point x="336" y="690" type="line"/>
      <point x="458" y="607" type="line"/>
      <point x="554" y="607" type="line"/>
      <point x="433" y="711" type="line"/>
      <point x="333" y="711" type="line"/>
    </contour>
  </outline>
</glyph>
<glyph name="dotaccentcomb.loclVIET" format="2">
  <anchor x="353" y="532" name="_top"/>
  <anchor x="383" y="683" name="top"/>
  <outline>
    <contour>
      <point x="378" y="621" type="curve" smooth="yes"/>
      <point x="410" y="621"/>
      <point x="438" y="646"/>
      <point x="438" y="680" type="curve" smooth="yes"/>
      <point x="438" y="713"/>
      <point x="413" y="733"/>
      <point x="385" y="733" type="curve" smooth="yes"/>
      <point x="353" y="733"/>
      <point x="326" y="708"/>
      <point x="326" y="673" type="curve" smooth="yes"/>
      <point x="326" y="641"/>
      <point x="350" y="621"/>
    </contour>
  </outline>
</glyph>
<glyph name="ezh.sc" format="2">
  <advance width="562"/>
  <guideline x="239" y="94" angle="258.7"/>
  <anchor x="220" y="0" name="bottom"/>
  <anchor x="334" y="570" name="top"/>
  <outline>
    <contour>
      <point x="218" y="-8" type="curve" smooth="yes"/>
      <point x="360" y="-8"/>
      <point x="496" y="60"/>
      <point x="496" y="187" type="curve" smooth="yes"/>
      <point x="496" y="276"/>
      <point x="429" y="335"/>
      <point x="292" y="335" type="curve" smooth="yes"/>
      <point x="264" y="335" type="line"/>
      <point x="305" y="305" type="line"/>
      <point x="531" y="495" type="line"/>
      <point x="544" y="570" type="line"/>
      <point x="117" y="570" type="line"/>
      <point x="99" y="479" type="line"/>
      <point x="441" y="479" type="line"/>
      <point x="437" y="519" type="line"/>
      <point x="213" y="328" type="line"/>
      <point x="203" y="254" type="line"/>
      <point x="283" y="254" type="line" smooth="yes"/>
      <point x="362" y="254"/>
      <point x="385" y="224"/>
      <point x="385" y="187" type="curve" smooth="yes"/>
      <point x="385" y="119"/>
      <point x="304" y="86"/>
      <point x="217" y="86" type="curve" smooth="yes"/>
      <point x="153" y="86"/>
      <point x="85" y="104"/>
      <point x="43" y="139" type="curve"/>
      <point x="-7" y="58" type="line"/>
      <point x="55" y="14"/>
      <point x="137" y="-8"/>
    </contour>
  </outline>
</glyph>
<glyph name="iacute_j.loclNLD.sc" format="2">
  <advance width="625"/>
  <outline>
    <contour>
      <point x="246" y="-9" type="curve" smooth="yes"/>
      <point x="403" y="-9"/>
      <point x="501" y="73"/>
      <point x="534" y="243" type="curve" smooth="yes"/>
      <point x="599" y="570" type="line"/>
      <point x="488" y="570" type="line"/>
      <point x="423" y="248" type="line" smooth="yes"/>
      <point x="399" y="135"/>
      <point x="347" y="87"/>
      <point x="250" y="87" type="curve" smooth="yes"/>
      <point x="190" y="87"/>
      <point x="134" y="106"/>
      <point x="87" y="140" type="curve"/>
      <point x="32" y="53" type="line"/>
      <point x="83" y="16"/>
      <point x="154" y="-9"/>
    </contour>
    <contour>
      <point x="83" y="258" type="line"/>
      <point x="195" y="258" type="line"/>
      <point x="257" y="570" type="line"/>
      <point x="145" y="570" type="line"/>
    </contour>
    <contour>
      <point x="155" y="646" type="line"/>
      <point x="242" y="646" type="line"/>
      <point x="427" y="780" type="line"/>
      <point x="307" y="780" type="line"/>
    </contour>
    <contour>
      <point x="493" y="646" type="line"/>
      <point x="579" y="646" type="line"/>
      <point x="764" y="780" type="line"/>
      <point x="644" y="780" type="line"/>
    </contour>
  </outline>
</glyph>
<glyph name="iu-cy.loclBGR" format="2">
  <advance width="890"/>
  <outline>
    <contour>
      <point x="35" y="0" type="line"/>
      <point x="145" y="0" type="line"/>
      <point x="189" y="219" type="line"/>
      <point x="348" y="219" type="line"/>
      <point x="368" y="320" type="line"/>
      <point x="209" y="320" type="line"/>
      <point x="293" y="742" type="line"/>
      <point x="183" y="742" type="line"/>
    </contour>
    <contour>
      <point x="538" y="-6" type="curve" smooth="yes"/>
      <point x="719" y="-6"/>
      <point x="848" y="128"/>
      <point x="848" y="307" type="curve" smooth="yes"/>
      <point x="848" y="447"/>
      <point x="750" y="538"/>
      <point x="599" y="538" type="curve" smooth="yes"/>
      <point x="419" y="538"/>
      <point x="289" y="404"/>
      <point x="289" y="225" type="curve" smooth="yes"/>
      <point x="289" y="86"/>
      <point x="387" y="-6"/>
    </contour>
    <contour>
      <point x="546" y="90" type="curve" smooth="yes"/>
      <point x="452" y="90"/>
      <point x="400" y="143"/>
      <point x="400" y="230" type="curve" smooth="yes"/>
      <point x="400" y="355"/>
      <point x="481" y="442"/>
      <point x="592" y="442" type="curve" smooth="yes"/>
      <point x="685" y="442"/>
      <point x="737" y="389"/>
      <point x="737" y="302" type="curve" smooth="yes"/>
      <point x="737" y="177"/>
      <point x="656" y="90"/>
    </contour>
  </outline>
</glyph>
<glyph name="m.sc" format="2">
  <advance width="820"/>
  <anchor x="358" y="0" name="bottom"/>
  <anchor x="471" y="570" name="top"/>
  <outline>
    <contour>
      <point x="40" y="0" type="line"/>
      <point x="147" y="0" type="line"/>
      <point x="228" y="406" type="line"/>
      <point x="204" y="410" type="line"/>
      <point x="350" y="63" type="line"/>
      <point x="400" y="63" type="line"/>
      <point x="675" y="407" type="line"/>
      <point x="649" y="406" type="line"/>
      <point x="568" y="0" type="line"/>
      <point x="675" y="0" type="line"/>
      <point x="789" y="570" type="line"/>
      <point x="692" y="570" type="line"/>
      <point x="364" y="157" type="line"/>
      <point x="414" y="155" type="line"/>
      <point x="245" y="570" type="line"/>
      <point x="153" y="570" type="line"/>
    </contour>
  </outline>
</glyph>
<glyph name="period.sc" format="2">
  <advance width="240"/>
  <outline>
    <contour>
      <point x="77" y="-6" type="curve" smooth="yes"/>
      <point x="122" y="-6"/>
      <point x="152" y="29"/>
      <point x="152" y="70" type="curve" smooth="yes"/>
      <point x="152" y="107"/>
      <point x="124" y="136"/>
      <point x="83" y="136" type="curve" smooth="yes"/>
      <point x="38" y="136"/>
      <point x="8" y="103"/>
      <point x="8" y="60" type="curve" smooth="yes"/>
      <point x="8" y="23"/>
      <point x="38" y="-6"/>
    </contour>
  </outline>
</glyph>
<glyph name="periodcentered.loclCAT" format="2">
  <advance width="139"/>
  <anchor x="108" y="280" name="_dot"/>
  <outline>
    <contour>
      <point x="105" y="217" type="curve" smooth="yes"/>
      <point x="141" y="217"/>
      <point x="169" y="246"/>
      <point x="169" y="284" type="curve" smooth="yes"/>
      <point x="169" y="319"/>
      <point x="143" y="343"/>
      <point x="110" y="343" type="curve" smooth="yes"/>
      <point x="75" y="343"/>
      <point x="47" y="314"/>
      <point x="47" y="276" type="curve" smooth="yes"/>
      <point x="47" y="241"/>
      <point x="73" y="217"/>
    </contour>
  </outline>
</glyph>
<glyph name="seven.tf" format="2">
  <advance width="700"/>
  <outline>
    <contour>
      <point x="163" y="0" type="line"/>
      <point x="287.99" y="0" type="line"/>
      <point x="710" y="622" type="line"/>
      <point x="724" y="700" type="line"/>
      <point x="157" y="700" type="line"/>
      <point x="113" y="479" type="line"/>
      <point x="223" y="479" type="line"/>
      <point x="259" y="657" type="line"/>
      <point x="190" y="601" type="line"/>
      <point x="629" y="601" type="line"/>
      <point x="604" y="653" type="line"/>
    </contour>
  </outline>
</glyph>
<glyph name="t.ss01" format="2">
  <advance width="399"/>
  <anchor x="183" y="0" name="bottom"/>
  <anchor x="172" y="284" name="center"/>
  <anchor x="214" y="649" name="top"/>
  <anchor x="370" y="742" name="topright"/>
  <outline>
    <contour>
      <point x="205" y="-6" type="curve" smooth="yes"/>
      <point x="248" y="-6"/>
      <point x="294" y="1"/>
      <point x="331" y="26" type="curve"/>
      <point x="310" y="109" type="line"/>
      <point x="288" y="94"/>
      <point x="261" y="86"/>
      <point x="237" y="86" type="curve" smooth="yes"/>
      <point x="182" y="86"/>
      <point x="164" y="122"/>
      <point x="174" y="174" type="curve" smooth="yes"/>
      <point x="269" y="649" type="line"/>
      <point x="159" y="649" type="line"/>
      <point x="64" y="173" type="line" smooth="yes"/>
      <point x="42" y="62"/>
      <point x="107" y="-6"/>
    </contour>
    <contour>
      <point x="180" y="442" type="line"/>
      <point x="375" y="442" type="line"/>
      <point x="393" y="532" type="line"/>
      <point x="196" y="532" type="line"/>
    </contour>
  </outline>
</glyph>
<glyph name="tildecomb.loclVIET" format="2">
  <anchor x="353" y="532" name="_top"/>
  <anchor x="382" y="679" name="top"/>
  <outline>
    <contour>
      <point x="444" y="610" type="curve" smooth="yes"/>
      <point x="505" y="610"/>
      <point x="548" y="651"/>
      <point x="558" y="718" type="curve"/>
      <point x="499" y="718" type="line"/>
      <point x="493" y="691"/>
      <point x="474" y="670"/>
      <point x="444" y="670" type="curve" smooth="yes"/>
      <point x="406" y="670"/>
      <point x="381" y="724"/>
      <point x="317" y="724" type="curve" smooth="yes"/>
      <point x="257" y="724"/>
      <point x="213" y="684"/>
      <point x="202" y="615" type="curve"/>
      <point x="263" y="615" type="line"/>
      <point x="269" y="644"/>
      <point x="288" y="664"/>
      <point x="317" y="664" type="curve" smooth="yes"/>
      <point x="355" y="664"/>
      <point x="379" y="610"/>
    </contour>
  </outline>
</glyph>
<glyph name="tildecomb.narrow" format="2">
  <anchor x="353" y="532" name="_top"/>
  <anchor x="386" y="699" name="top"/>
  <outline>
    <contour>
      <point x="437" y="608" type="curve" smooth="yes"/>
      <point x="493" y="608"/>
      <point x="531" y="654"/>
      <point x="540" y="734" type="curve"/>
      <point x="480" y="734" type="line"/>
      <point x="476" y="698"/>
      <point x="459" y="676"/>
      <point x="437" y="676" type="curve" smooth="yes"/>
      <point x="404" y="676"/>
      <point x="387" y="742"/>
      <point x="327" y="742" type="curve" smooth="yes"/>
      <point x="271" y="742"/>
      <point x="232" y="697"/>
      <point x="223" y="614" type="curve"/>
      <point x="284" y="614" type="line"/>
      <point x="288" y="652"/>
      <point x="304" y="675"/>
      <point x="326" y="675" type="curve" smooth="yes"/>
      <point x="359" y="675"/>
      <point x="377" y="608"/>
    </contour>
  </outline>
</glyph>
<glyph name="u.sc" format="2">
  <advance width="681"/>
  <anchor x="288" y="0" name="bottom"/>
  <anchor x="459" y="0" name="ogonek"/>
  <anchor x="402" y="570" name="top"/>
  <anchor x="618" y="570" name="topright"/>
  <outline>
    <contour>
      <point x="304" y="-9" type="curve" smooth="yes"/>
      <point x="462" y="-9"/>
      <point x="557" y="76"/>
      <point x="590" y="244" type="curve" smooth="yes"/>
      <point x="655" y="570" type="line"/>
      <point x="546" y="570" type="line"/>
      <point x="482" y="251" type="line" smooth="yes"/>
      <point x="459" y="138"/>
      <point x="407" y="89"/>
      <point x="316" y="89" type="curve" smooth="yes"/>
      <point x="219" y="89"/>
      <point x="173" y="144"/>
      <point x="195" y="252" type="curve" smooth="yes"/>
      <point x="259" y="570" type="line"/>
      <point x="148" y="570" type="line"/>
      <point x="84" y="250" type="line" smooth="yes"/>
      <point x="52" y="92"/>
      <point x="138" y="-9"/>
    </contour>
  </outline>
</glyph>
<glyph name="uogonek.loclNAV.sc.ss01" format="2">
  <advance width="688"/>
  <anchor x="402" y="570" name="top"/>
  <anchor x="608" y="570" name="topright"/>
  <outline>
    <contour>
      <point x="269" y="-226" type="curve" smooth="yes"/>
      <point x="305" y="-226"/>
      <point x="336" y="-217"/>
      <point x="363" y="-203" type="curve"/>
      <point x="350" y="-147" type="line"/>
      <point x="331" y="-157"/>
      <point x="306" y="-163"/>
      <point x="286" y="-163" type="curve" smooth="yes"/>
      <point x="254" y="-163"/>
      <point x="234" y="-148"/>
      <point x="234" y="-120" type="curve" smooth="yes"/>
      <point x="234" y="-77"/>
      <point x="290" y="-32"/>
      <point x="365" y="3" type="curve" smooth="yes"/>
      <point x="421" y="29"/>
      <point x="456" y="56"/>
      <point x="483" y="103" type="curve"/>
      <point x="464" y="135" type="line"/>
      <point x="437" y="0" type="line"/>
      <point x="543" y="0" type="line"/>
      <point x="657" y="570" type="line"/>
      <point x="546" y="570" type="line"/>
      <point x="480" y="241" type="line" smooth="yes"/>
      <point x="458" y="133"/>
      <point x="391" y="88"/>
      <point x="305" y="88" type="curve" smooth="yes"/>
      <point x="214" y="88"/>
      <point x="173" y="138"/>
      <point x="194" y="243" type="curve" smooth="yes"/>
      <point x="259" y="570" type="line"/>
      <point x="148" y="570" type="line"/>
      <point x="84" y="250" type="line" smooth="yes"/>
      <point x="51" y="85"/>
      <point x="135" y="-9"/>
      <point x="265" y="-9" type="curve" smooth="yes"/>
      <point x="284" y="-9"/>
      <point x="310" y="-7"/>
      <point x="344" y="0" type="curve"/>
      <point x="344" y="58" type="line"/>
      <point x="216" y="-4"/>
      <point x="155" y="-63"/>
      <point x="155" y="-133" type="curve" smooth="yes"/>
      <point x="155" y="-193"/>
      <point x="201" y="-226"/>
    </contour>
  </outline>
</glyph>
<glyph name="uogonek.loclNAV.ss01" format="2">
  <advance width="725"/>
  <anchor x="284" y="0" name="bottom"/>
  <anchor x="670" y="6" name="ogonek"/>
  <anchor x="390" y="532" name="top"/>
  <anchor x="590" y="532" name="topright"/>
  <outline>
    <contour>
      <point x="262" y="-226" type="curve" smooth="yes"/>
      <point x="300" y="-226"/>
      <point x="331" y="-217"/>
      <point x="358" y="-203" type="curve"/>
      <point x="345" y="-147" type="line"/>
      <point x="326" y="-157"/>
      <point x="302" y="-163"/>
      <point x="279" y="-163" type="curve" smooth="yes"/>
      <point x="249" y="-163"/>
      <point x="229" y="-148"/>
      <point x="229" y="-120" type="curve" smooth="yes"/>
      <point x="229" y="-71"/>
      <point x="285" y="-33"/>
      <point x="347" y="-2" type="curve" smooth="yes"/>
      <point x="403" y="26"/>
      <point x="456" y="57"/>
      <point x="483" y="103" type="curve"/>
      <point x="461" y="115" type="line"/>
      <point x="462" y="42"/>
      <point x="512" y="-6"/>
      <point x="596" y="-6" type="curve" smooth="yes"/>
      <point x="622" y="-6"/>
      <point x="648" y="-2"/>
      <point x="670" y="6" type="curve"/>
      <point x="681" y="95" type="line"/>
      <point x="669" y="90"/>
      <point x="652" y="86"/>
      <point x="633" y="86" type="curve" smooth="yes"/>
      <point x="585" y="86"/>
      <point x="561" y="115"/>
      <point x="572" y="168" type="curve" smooth="yes"/>
      <point x="645" y="532" type="line"/>
      <point x="535" y="532" type="line"/>
      <point x="479" y="253" type="line" smooth="yes"/>
      <point x="457" y="144"/>
      <point x="390" y="92"/>
      <point x="295" y="92" type="curve" smooth="yes"/>
      <point x="203" y="92"/>
      <point x="168" y="145"/>
      <point x="186" y="236" type="curve" smooth="yes"/>
      <point x="245" y="532" type="line"/>
      <point x="135" y="532" type="line"/>
      <point x="76" y="237" type="line" smooth="yes"/>
      <point x="45" y="81"/>
      <point x="127" y="-6"/>
      <point x="262" y="-6" type="curve" smooth="yes"/>
      <point x="277" y="-6"/>
      <point x="292" y="-5"/>
      <point x="306" y="-3" type="curve"/>
      <point x="336" y="59" type="line"/>
      <point x="213" y="0"/>
      <point x="150" y="-63"/>
      <point x="150" y="-134" type="curve" smooth="yes"/>
      <point x="150" y="-193"/>
      <point x="197" y="-226"/>
    </contour>
  </outline>
</glyph>
<glyph name="ve-cy.loclBGR" format="2">
  <advance width="645"/>
  <outline>
    <contour>
      <point x="295" y="-9" type="curve" smooth="yes"/>
      <point x="466" y="-9"/>
      <point x="590" y="89"/>
      <point x="590" y="224" type="curve" smooth="yes"/>
      <point x="590" y="324"/>
      <point x="522" y="387"/>
      <point x="404" y="399" type="curve"/>
      <point x="390" y="373" type="line"/>
      <point x="527" y="388"/>
      <point x="625" y="475"/>
      <point x="625" y="589" type="curve" smooth="yes"/>
      <point x="625" y="689"/>
      <point x="546" y="751"/>
      <point x="419" y="751" type="curve" smooth="yes"/>
      <point x="268" y="751"/>
      <point x="153" y="664"/>
      <point x="126" y="531" type="curve" smooth="yes"/>
      <point x="60" y="204" type="line" smooth="yes"/>
      <point x="35" y="80"/>
      <point x="132" y="-9"/>
    </contour>
    <contour>
      <point x="301" y="84" type="curve" smooth="yes"/>
      <point x="207" y="84"/>
      <point x="156" y="133"/>
      <point x="171" y="207" type="curve" smooth="yes"/>
      <point x="197" y="339" type="line"/>
      <point x="335" y="339" type="line" smooth="yes"/>
      <point x="430" y="339"/>
      <point x="479" y="302"/>
      <point x="479" y="231" type="curve" smooth="yes"/>
      <point x="479" y="145"/>
      <point x="406" y="84"/>
    </contour>
    <contour>
      <point x="213" y="425" type="line"/>
      <point x="235" y="532" type="line" smooth="yes"/>
      <point x="251" y="608"/>
      <point x="317" y="656"/>
      <point x="403" y="656" type="curve" smooth="yes"/>
      <point x="474" y="656"/>
      <point x="511" y="624"/>
      <point x="511" y="566" type="curve" smooth="yes"/>
      <point x="511" y="481"/>
      <point x="442" y="425"/>
      <point x="339" y="425" type="curve" smooth="yes"/>
    </contour>
  </outline>
</glyph>
<glyph name="verticalbar-cy.case" format="2">
  <advance width="284"/>
  <anchor x="94" y="0" name="_bottom"/>
  <outline>
    <contour>
      <point x="147" y="25" type="line"/>
      <point x="41" y="25" type="line"/>
      <point x="6" y="-151" type="line"/>
      <point x="112" y="-151" type="line"/>
    </contour>
  </outline>
</glyph>
<glyph name="zhe-cy.loclBGR" format="2">
  <advance width="864"/>
  <outline>
    <contour>
      <point x="671" y="0" type="line"/>
      <point x="800" y="0" type="line"/>
      <point x="656" y="302" type="line"/>
      <point x="558" y="259" type="line"/>
    </contour>
    <contour>
      <point x="446" y="223" type="line"/>
      <point x="622" y="223" type="line"/>
      <point x="639" y="310" type="line"/>
      <point x="463" y="310" type="line"/>
    </contour>
    <contour>
      <point x="661" y="255" type="line"/>
      <point x="896" y="532" type="line"/>
      <point x="773" y="532" type="line"/>
      <point x="555" y="267" type="line"/>
    </contour>
    <contour>
      <point x="92" y="0" type="line"/>
      <point x="304" y="259" type="line"/>
      <point x="221" y="311" type="line"/>
      <point x="-44" y="0" type="line"/>
    </contour>
    <contour>
      <point x="434" y="0" type="line"/>
      <point x="583" y="742" type="line"/>
      <point x="472" y="742" type="line"/>
      <point x="324" y="0" type="line"/>
    </contour>
    <contour>
      <point x="402" y="223" type="line"/>
      <point x="419" y="310" type="line"/>
      <point x="244" y="310" type="line"/>
      <point x="226" y="223" type="line"/>
    </contour>
    <contour>
      <point x="203" y="255" type="line"/>
      <point x="307" y="267" type="line"/>
      <point x="195" y="532" type="line"/>
      <point x="79" y="532" type="line"/>
    </contour>
  </outline>
</glyph>
